<?xml version="1.0" encoding="UTF-8"?>
<svg version="1.1" xmlns="http://www.w3.org/2000/svg" width="903" height="318">
<path d="M0 0 C297.99 0 595.98 0 903 0 C903 104.94 903 209.88 903 318 C605.01 318 307.02 318 0 318 C0 213.06 0 108.12 0 0 Z " fill="#2A2B30" transform="translate(0,0)"/>
<path d="M0 0 C1.13308594 -0.0299707 1.13308594 -0.0299707 2.2890625 -0.06054688 C3.02640625 -0.05990234 3.76375 -0.05925781 4.5234375 -0.05859375 C5.52383057 -0.06137329 5.52383057 -0.06137329 6.54443359 -0.06420898 C9.80107372 0.72109909 11.28979523 2.02341575 13.625 4.4375 C15.06216626 7.34462129 15.98866591 10.36284159 16.9296875 13.4609375 C17.21471634 14.35109558 17.49974518 15.24125366 17.79341125 16.15838623 C18.7115028 19.0383284 19.60586677 21.92503978 20.5 24.8125 C21.12385667 26.78418258 21.74926505 28.75537486 22.3762207 30.72607422 C23.88118143 35.46742786 25.36871113 40.21401608 26.8505249 44.96264648 C28.20000214 49.27493294 29.57810951 53.57792478 30.95556641 57.88134766 C31.74083669 60.33828165 32.51805192 62.79759823 33.29296875 65.2578125 C34.68756141 69.6675999 36.15025411 74.05395835 37.625 78.4375 C40.40208597 72.5418545 42.59824934 66.70233964 44.375 60.4375 C46.73852031 52.33633039 49.23180055 44.28465691 51.8125 36.25 C52.14540039 35.21166016 52.47830078 34.17332031 52.82128906 33.10351562 C58.21360334 16.33585695 58.21360334 16.33585695 61.25 8.4375 C61.67539062 7.32375 62.10078125 6.21 62.5390625 5.0625 C63.625 2.4375 63.625 2.4375 64.625 1.4375 C68.26326046 1.15851175 71.91480798 1.20572707 75.5625 1.1875 C77.10454102 1.1565625 77.10454102 1.1565625 78.67773438 1.125 C79.65935547 1.11984375 80.64097656 1.1146875 81.65234375 1.109375 C83.00960571 1.09535645 83.00960571 1.09535645 84.39428711 1.08105469 C85.13042236 1.19868164 85.86655762 1.31630859 86.625 1.4375 C88.67168994 4.50753491 88.87729862 5.14272405 88.89915466 8.60569763 C88.90912979 9.45387054 88.91910492 10.30204346 88.92938232 11.17591858 C88.930047 12.10327316 88.93071167 13.03062775 88.93139648 13.98608398 C88.93972 14.96520752 88.94804352 15.94433105 88.95661926 16.953125 C88.98075713 20.19665476 88.98949547 23.43998364 88.99609375 26.68359375 C89.00505624 28.93416913 89.01417801 31.18474388 89.02345276 33.43531799 C89.03995495 38.1555425 89.04764529 42.87569596 89.05053711 47.59594727 C89.05592625 53.65028831 89.09362359 59.70396384 89.13928127 65.75811672 C89.16899132 70.40691073 89.17625933 75.05554319 89.17726326 79.7044239 C89.18147655 81.93680944 89.19395495 84.16919498 89.21478081 86.40148735 C89.24157275 89.52133346 89.23690596 92.63961991 89.22436523 95.75952148 C89.23919952 96.68485184 89.25403381 97.61018219 89.26931763 98.56355286 C89.19757115 104.81693002 89.19757115 104.81693002 86.2481842 108.01356506 C83.38015882 109.57040638 81.73745504 109.92140522 78.5 109.8125 C77.65179687 109.79960937 76.80359375 109.78671875 75.9296875 109.7734375 C73.625 109.4375 73.625 109.4375 70.625 107.4375 C70.22627258 104.65341187 70.22627258 104.65341187 70.19262695 101.06005859 C70.17733948 100.07938667 70.17733948 100.07938667 70.16174316 99.0789032 C70.13151042 96.9144953 70.12233215 94.75052917 70.11328125 92.5859375 C70.09644207 91.08662432 70.07829286 89.58732532 70.05888367 88.08804321 C70.01129438 84.13924593 69.98154315 80.19050612 69.95544434 76.24151611 C69.92568355 72.21297854 69.87913797 68.18463925 69.83398438 64.15625 C69.74784986 56.2500972 69.68055012 48.34392654 69.625 40.4375 C68.09987148 44.89200691 66.57552433 49.34677849 65.05249023 53.80200195 C63.76536139 57.56699685 62.47543841 61.33101943 61.18383789 65.09448242 C58.41870518 73.16358416 55.66113355 81.23000449 53.08984375 89.36328125 C52.73792969 90.46736328 52.38601563 91.57144531 52.0234375 92.70898438 C51.40108934 94.67848861 50.79211864 96.65229073 50.19921875 98.63085938 C48.62634583 103.5831833 47.41905791 106.81732421 42.625 109.4375 C40.08984375 109.93359375 40.08984375 109.93359375 37.5625 109.875 C36.72589844 109.87371094 35.88929688 109.87242187 35.02734375 109.87109375 C31.91946111 109.31015883 30.78801305 108.78038939 28.625 106.4375 C27.36750104 103.51141121 26.50885596 100.49363699 25.625 97.4375 C25.14304829 95.94715702 24.65488256 94.4588075 24.16015625 92.97265625 C22.6875 88.5 22.6875 88.5 21.96289062 86.27539062 C20.70506786 82.46873441 19.35766502 78.73674602 17.82202148 75.03295898 C15.21538934 68.55681689 13.05412612 61.94215405 10.875 55.3125 C10.46378906 54.06984375 10.05257812 52.8271875 9.62890625 51.546875 C8.62483745 48.51131817 7.62360127 45.47485893 6.625 42.4375 C6.62135437 43.23263504 6.61770874 44.02777008 6.61395264 44.84700012 C6.57610126 52.3368584 6.51928214 59.8262177 6.44109726 67.31575489 C6.40157092 71.16633127 6.36940815 75.01667721 6.35400391 78.86743164 C6.33887067 82.58299933 6.30448622 86.29793373 6.25669098 90.01321983 C6.24184242 91.43134752 6.23395699 92.8495656 6.23311615 94.26777077 C6.23075557 96.2525954 6.20144513 98.23733286 6.17089844 100.22192383 C6.16201599 101.35221512 6.15313354 102.48250641 6.14398193 103.64704895 C5.625 106.4375 5.625 106.4375 3.72955322 108.30326843 C1.32124157 109.60120809 -0.15454504 109.81055807 -2.875 109.75 C-3.6278125 109.74613281 -4.380625 109.74226563 -5.15625 109.73828125 C-7.59228551 109.40804404 -9.21574752 108.57575232 -11.375 107.4375 C-11.44442177 93.9294292 -11.4977715 80.42140064 -11.53043652 66.91318798 C-11.54611178 60.64119873 -11.56738415 54.36933126 -11.60131836 48.09741211 C-11.63384522 42.04794933 -11.65183899 35.9986039 -11.65963173 29.94906044 C-11.66518723 27.63771021 -11.67603534 25.3263666 -11.69219017 23.01506615 C-11.71387547 19.78488512 -11.71697062 16.55519293 -11.71557617 13.32495117 C-11.726362 12.36326019 -11.73714783 11.40156921 -11.7482605 10.41073608 C-11.74413651 9.53154007 -11.74001251 8.65234406 -11.73576355 7.74650574 C-11.73852893 6.98233935 -11.74129431 6.21817297 -11.74414349 5.43085003 C-10.60818414 -0.70325414 -5.10677383 -0.04744469 0 0 Z " fill="#FAFAFA" transform="translate(522.375,138.5625)"/>
<path d="M0 0 C0.91184555 -0.0033284 1.8236911 -0.0066568 2.76316833 -0.01008606 C4.70091242 -0.0151624 6.63866529 -0.01749417 8.57641602 -0.01733398 C11.52179767 -0.01950414 14.46679489 -0.0376067 17.41210938 -0.05664062 C19.29557164 -0.05957779 21.17903568 -0.06156042 23.0625 -0.0625 C23.93677139 -0.06968552 24.81104279 -0.07687103 25.71180725 -0.08427429 C35.29993168 -0.0490321 43.35715667 2.13857359 50.99609375 8.16796875 C53.4009536 10.97858684 55.30458762 13.88210381 56.99609375 17.16796875 C57.37121094 17.88210937 57.74632812 18.59625 58.1328125 19.33203125 C59.41428137 23.54174345 59.32469329 27.60461257 59.30859375 31.98046875 C59.32470703 32.84478516 59.34082031 33.70910156 59.35742188 34.59960938 C59.36495789 44.5848313 56.36087506 50.62963722 49.55859375 57.890625 C45.77528315 61.25292695 41.67530112 63.31191572 36.99609375 65.16796875 C38.69527726 70.91464555 41.27248854 76.16393173 43.87109375 81.54296875 C44.30550781 82.45046875 44.73992188 83.35796875 45.1875 84.29296875 C47.17276073 88.43041905 49.18651582 92.54399744 51.29296875 96.62109375 C53.02211494 100.22215967 53.55709878 102.24093356 52.99609375 106.16796875 C50.15046693 109.01359557 48.08723812 108.53538096 44.12109375 108.60546875 C42.88617187 108.64542969 41.65125 108.68539062 40.37890625 108.7265625 C36.99609375 108.16796875 36.99609375 108.16796875 34.9621582 105.9855957 C33.04006618 103.23098698 31.57562298 100.56787703 30.15625 97.52734375 C29.65029297 96.45613281 29.14433594 95.38492188 28.62304688 94.28125 C28.10677734 93.17136719 27.59050781 92.06148438 27.05859375 90.91796875 C22.19340571 78.80816686 22.19340571 78.80816686 14.99609375 68.16796875 C12.66791411 67.80036144 10.33425525 67.46555294 7.99609375 67.16796875 C8.0118042 68.30339111 8.02751465 69.43881348 8.04370117 70.60864258 C8.09797407 74.81853144 8.13243412 79.02838934 8.16088867 83.23852539 C8.17598135 85.06116942 8.1964577 86.88377711 8.22241211 88.70629883 C8.25877478 91.32512375 8.27581499 93.94346882 8.2890625 96.5625 C8.30454636 97.37821976 8.32003021 98.19393951 8.33598328 99.03437805 C8.33767926 104.72697185 8.33767926 104.72697185 6.66645813 106.88456726 C4.04677755 108.89736279 1.67180287 108.52750419 -1.56640625 108.48046875 C-2.72269531 108.47660156 -3.87898437 108.47273438 -5.0703125 108.46875 C-8.00390625 108.16796875 -8.00390625 108.16796875 -10.00390625 106.16796875 C-10.25279522 104.28484249 -10.25279522 104.28484249 -10.25114441 101.94798279 C-10.2553389 101.06319244 -10.25953339 100.1784021 -10.26385498 99.26679993 C-10.25823547 98.29373398 -10.25261597 97.32066803 -10.24682617 96.31811523 C-10.24872452 95.29530457 -10.25062286 94.2724939 -10.25257874 93.21868896 C-10.25629462 89.82540308 -10.2455714 86.43232948 -10.234375 83.0390625 C-10.23318364 80.69019089 -10.23272994 78.3413188 -10.23298645 75.9924469 C-10.23142022 71.06532823 -10.22311936 66.13828207 -10.2097168 61.21118164 C-10.19271745 54.87989315 -10.18890263 48.54868439 -10.18966198 42.21737576 C-10.18939071 37.36626925 -10.18391662 32.51518034 -10.17666054 27.66407967 C-10.17346749 25.32876786 -10.17150499 22.99345405 -10.17076683 20.65814018 C-10.16861051 17.40153443 -10.15988196 14.14501508 -10.14916992 10.88842773 C-10.14962311 9.91333755 -10.15007629 8.93824738 -10.15054321 7.93360901 C-10.14627823 7.05163849 -10.14201324 6.16966797 -10.13761902 5.26097107 C-10.13594317 4.49018439 -10.13426733 3.71939772 -10.1325407 2.92525387 C-9.78818519 -1.77901319 -3.55587423 0.00445394 0 0 Z " fill="#FAFAFB" transform="translate(743.00390625,139.83203125)"/>
<path d="M0 0 C21.0538588 -1.05857391 43.57265499 2.76473421 59.8984375 17.04296875 C60.59195313 17.68878906 61.28546875 18.33460937 62 19 C62.63164062 19.55300781 63.26328125 20.10601562 63.9140625 20.67578125 C79.6753187 35.22196263 83.11601255 54.73807717 84 75 C83.34 75 82.68 75 82 75 C81.72027344 74.38253906 81.44054687 73.76507813 81.15234375 73.12890625 C73.64752656 57.2746783 62.22559826 48.02941998 47 40 C45.90429688 39.41734375 44.80859375 38.8346875 43.6796875 38.234375 C38.48332302 35.55154021 33.64081294 33.49582896 28 32 C28.85980469 32.58265625 29.71960938 33.1653125 30.60546875 33.765625 C48.07183478 45.79756772 67.31792625 62.11851954 74 83 C73.5625 85.6953125 73.5625 85.6953125 73 88 C55.71533888 89.49867004 39.24731787 82.49063585 25.6875 72.125 C14.6831327 62.80950975 5.25384414 50.31202122 2 36 C1.79761719 35.13246094 1.59523438 34.26492187 1.38671875 33.37109375 C-0.72152896 22.3709169 -0.18575348 11.14949543 0 0 Z " fill="#6F9942" transform="translate(364,19)"/>
<path d="M0 0 C1.24652344 -0.02835938 2.49304688 -0.05671875 3.77734375 -0.0859375 C7.0625 0.375 7.0625 0.375 8.61035156 1.88867188 C10.59362028 5.28436936 11.54332681 8.85497678 12.58203125 12.6171875 C15.21210101 21.73965007 18.12200544 30.75659101 21.13671875 39.7578125 C21.36280949 40.43399376 21.58890022 41.11017502 21.82184219 41.80684662 C23.22267655 45.99563218 24.6276859 50.18300584 26.03442383 54.36981201 C27.931726 60.01786244 29.82464402 65.66737959 31.71567726 71.31753159 C32.3672097 73.26208608 33.02083742 75.20592629 33.67472839 77.14968872 C40.88630076 98.66690807 40.88630076 98.66690807 40.0625 105.375 C37.20730496 108.19767573 35.02412008 108.80646094 31.0625 108.8125 C30.216875 108.83183594 29.37125 108.85117188 28.5 108.87109375 C25.24352487 108.20831756 24.21649108 106.87133135 22.0625 104.375 C20.96582031 101.99316406 20.96582031 101.99316406 20.140625 99.390625 C19.86637695 98.54790039 19.59212891 97.70517578 19.30957031 96.83691406 C18.98053711 95.77698242 18.65150391 94.71705078 18.3125 93.625 C16.70375 88.55125 16.70375 88.55125 15.0625 83.375 C4.5025 83.375 -6.0575 83.375 -16.9375 83.375 C-19.07461374 90.10169678 -19.07461374 90.10169678 -21.18457031 96.83691406 C-21.45881836 97.67963867 -21.73306641 98.52236328 -22.015625 99.390625 C-22.28793945 100.24946289 -22.56025391 101.10830078 -22.84082031 101.99316406 C-24.12802547 104.78879485 -25.58675603 106.40395064 -27.9375 108.375 C-30.62890625 108.8359375 -30.62890625 108.8359375 -33.5 108.75 C-34.45003906 108.73710937 -35.40007813 108.72421875 -36.37890625 108.7109375 C-38.9375 108.375 -38.9375 108.375 -41.9375 106.375 C-42.92000461 98.98897849 -40.33107631 92.80304216 -37.8125 85.9375 C-37.43351563 84.87595703 -37.05453125 83.81441406 -36.6640625 82.72070312 C-35.86351944 80.4805168 -35.05812239 78.24206067 -34.24853516 76.00512695 C-29.5987863 63.13043128 -25.13843444 50.19129332 -20.72314453 37.23461914 C-19.80733362 34.5473402 -18.89009755 31.86055083 -17.97265625 29.17382812 C-17.67401672 28.29840363 -17.3753772 27.42297913 -17.06768799 26.52102661 C-16.48287378 24.80671987 -15.89755934 23.09258368 -15.31170654 21.37863159 C-14.07909104 17.76478003 -12.85604938 14.14960637 -11.68847656 10.51416016 C-11.34010742 9.43312012 -10.99173828 8.35208008 -10.6328125 7.23828125 C-10.34680176 6.32989502 -10.06079102 5.42150879 -9.76611328 4.4855957 C-7.81925319 -0.47333344 -4.84303117 0.04997968 0 0 Z " fill="#F8F8F9" transform="translate(847.9375,139.625)"/>
<path d="M0 0 C1.53333984 0.00676758 1.53333984 0.00676758 3.09765625 0.01367188 C5.60683194 0.025397 8.1158849 0.04180824 10.625 0.0625 C11.0619968 25.24696202 8.57019158 46.76319559 -9.625 65.8125 C-18.37428807 74.19226773 -28.28305711 79.37576357 -39.375 84.0625 C-40.14457031 84.40539062 -40.91414063 84.74828125 -41.70703125 85.1015625 C-48.42205371 87.76763821 -55.25018378 87.33614159 -62.375 87.0625 C-63.69822302 77.61090697 -58.48822929 69.40679535 -53.15234375 61.9609375 C-50.97130154 59.24492268 -48.72119939 56.63656768 -46.375 54.0625 C-45.82328125 53.44117188 -45.2715625 52.81984375 -44.703125 52.1796875 C-36.88655814 43.86007425 -26.9399905 37.20184424 -17.375 31.0625 C-36.91157597 39.39101765 -56.40950534 47.79566255 -67.375 67.0625 C-68.36494188 68.73516041 -69.35932193 70.40534104 -70.375 72.0625 C-70.705 72.0625 -71.035 72.0625 -71.375 72.0625 C-72.35470166 54.40065614 -67.42398889 36.85007071 -56.14453125 22.921875 C-41.01346921 7.02256919 -21.58360083 -0.18102375 0 0 Z " fill="#6F9A42" transform="translate(528.375,19.9375)"/>
<path d="M0 0 C1.3303125 0.00773438 1.3303125 0.00773438 2.6875 0.015625 C3.574375 0.01046875 4.46125 0.0053125 5.375 0 C7.6875 0.265625 7.6875 0.265625 9.6875 2.265625 C9.92800903 4.25247192 9.92800903 4.25247192 9.91455078 6.71533203 C9.91432419 8.09653732 9.91432419 8.09653732 9.91409302 9.50564575 C9.90377045 10.50151703 9.89344788 11.49738831 9.8828125 12.5234375 C9.8799826 13.54162567 9.87715271 14.55981384 9.87423706 15.6088562 C9.8630177 18.869564 9.83790996 22.12999984 9.8125 25.390625 C9.80247247 27.59765229 9.79334623 29.80468388 9.78515625 32.01171875 C9.76477191 37.42987727 9.72562636 42.84744573 9.6875 48.265625 C19.9175 48.265625 30.1475 48.265625 40.6875 48.265625 C40.65269531 45.05199219 40.61789062 41.83835937 40.58203125 38.52734375 C40.55864441 35.41968678 40.54042283 32.31203955 40.52270508 29.2043457 C40.50760556 27.04219179 40.48712429 24.88006857 40.46118164 22.71801758 C40.42484983 19.612716 40.40778538 16.50781886 40.39453125 13.40234375 C40.37904739 12.43350754 40.36356354 11.46467133 40.34761047 10.46647644 C40.34738388 9.5657692 40.34715729 8.66506195 40.34692383 7.73706055 C40.34026199 6.94430222 40.33360016 6.15154388 40.32673645 5.33476257 C40.77914677 2.73999048 41.63263467 1.86249908 43.6875 0.265625 C45.625 -0.09765625 45.625 -0.09765625 47.6875 -0.046875 C48.7084375 -0.04107422 48.7084375 -0.04107422 49.75 -0.03515625 C51.6875 0.265625 51.6875 0.265625 54.6875 2.265625 C55.05664349 4.15154457 55.05664349 4.15154457 55.04826355 6.49234009 C55.05238754 7.37857559 55.05651154 8.2648111 55.0607605 9.17790222 C55.04997467 10.15253922 55.03918884 11.12717621 55.02807617 12.13134766 C55.02873329 13.6679731 55.02873329 13.6679731 55.02940369 15.23564148 C55.02730766 18.63384831 55.00393798 22.03156648 54.98046875 25.4296875 C54.9748757 27.78095225 54.97060423 30.1322205 54.96760559 32.48348999 C54.95613397 38.68141276 54.92664676 44.87912566 54.89349365 51.07696533 C54.86284271 57.3976355 54.8491109 63.71833948 54.83398438 70.0390625 C54.80177937 82.44800903 54.75055501 94.85679959 54.6875 107.265625 C52.36063547 108.42905727 50.84028587 108.46458488 48.25 108.515625 C47.07630859 108.55429688 47.07630859 108.55429688 45.87890625 108.59375 C43.10912574 108.17902351 42.40588233 107.4419244 40.6875 105.265625 C40.32673645 103.23445129 40.32673645 103.23445129 40.34692383 100.88598633 C40.34726372 99.56495659 40.34726372 99.56495659 40.34761047 98.21723938 C40.36309433 97.27027695 40.37857819 96.32331451 40.39453125 95.34765625 C40.39877609 94.37527512 40.40302094 93.40289398 40.40739441 92.40104675 C40.42419685 89.29312534 40.46185221 86.18585066 40.5 83.078125 C40.5150448 80.97201457 40.52873356 78.86589398 40.54101562 76.75976562 C40.57155463 71.59460204 40.63027359 66.43083802 40.6875 61.265625 C30.4575 61.265625 20.2275 61.265625 9.6875 61.265625 C9.73970703 65.97779297 9.73970703 65.97779297 9.79296875 70.78515625 C9.8163562 73.82331432 9.83457743 76.86146241 9.85229492 79.8996582 C9.8673936 82.01331054 9.88787426 84.12693148 9.91381836 86.24047852 C9.95015397 89.27628315 9.96721544 92.31167406 9.98046875 95.34765625 C9.99595261 96.29461868 10.01143646 97.24158112 10.02738953 98.21723938 C10.02772942 99.53826912 10.02772942 99.53826912 10.02807617 100.88598633 C10.03473801 101.66097977 10.04139984 102.43597321 10.04826355 103.23445129 C9.59231459 105.80153862 8.71775187 106.68059752 6.6875 108.265625 C4.75 108.62890625 4.75 108.62890625 2.6875 108.578125 C1.6665625 108.57232422 1.6665625 108.57232422 0.625 108.56640625 C-1.3125 108.265625 -1.3125 108.265625 -4.3125 106.265625 C-4.68723011 104.40090942 -4.68723011 104.40090942 -4.6867218 102.09033203 C-4.69373611 101.215401 -4.70075043 100.34046997 -4.70797729 99.43902588 C-4.70033356 98.47688171 -4.69268982 97.51473755 -4.68481445 96.5234375 C-4.68846512 95.51198669 -4.69211578 94.50053589 -4.69587708 93.45843506 C-4.70400831 90.10232959 -4.6903509 86.74670305 -4.67578125 83.390625 C-4.67526295 81.06656901 -4.67577947 78.74251258 -4.67729187 76.41845703 C-4.67720203 71.54257685 -4.6667487 66.6668616 -4.64868164 61.79101562 C-4.62599418 55.52927726 -4.62544916 49.26778011 -4.63219929 43.00601196 C-4.63553482 38.20546307 -4.62891702 33.40496955 -4.61907005 28.60443115 C-4.61521058 26.29506723 -4.61407291 23.98569717 -4.6156559 21.67633057 C-4.61602521 18.45337103 -4.60344381 15.2307251 -4.5871582 12.0078125 C-4.58963562 11.04566833 -4.59211304 10.08352417 -4.59466553 9.09222412 C-4.58758072 8.21729309 -4.58049591 7.34236206 -4.57319641 6.44091797 C-4.57114354 5.67842743 -4.56909067 4.91593689 -4.56697559 4.13034058 C-4.155126 1.11243875 -2.92943309 0.33648894 0 0 Z " fill="#F8F8F9" transform="translate(392.3125,139.734375)"/>
<path d="M0 0 C1.0209375 0.00580078 1.0209375 0.00580078 2.0625 0.01171875 C4 0.3125 4 0.3125 7 2.3125 C7.36076355 4.29934692 7.36076355 4.29934692 7.34057617 6.76220703 C7.34034958 7.68301056 7.34012299 8.60381409 7.33988953 9.55252075 C7.32440567 10.54839203 7.30892181 11.54426331 7.29296875 12.5703125 C7.28872391 13.58850067 7.28447906 14.60668884 7.28010559 15.6557312 C7.26327579 18.91658673 7.22561546 22.17683041 7.1875 25.4375 C7.17245874 27.64452234 7.15876937 29.85155434 7.14648438 32.05859375 C7.11590652 37.47698943 7.05719232 42.89405767 7 48.3125 C17.89 48.3125 28.78 48.3125 40 48.3125 C39.97679687 45.01507813 39.95359375 41.71765625 39.9296875 38.3203125 C39.91410253 35.13655991 39.90195121 31.95281152 39.89013672 28.76904297 C39.88006175 26.55157579 39.86640141 24.33412195 39.84912109 22.11669922 C39.82493837 18.93453688 39.81353203 15.75254976 39.8046875 12.5703125 C39.79436493 11.57444122 39.78404236 10.57856995 39.77340698 9.55252075 C39.77318039 8.17131546 39.77318039 8.17131546 39.77294922 6.76220703 C39.768508 5.9494632 39.76406677 5.13671936 39.75949097 4.29934692 C40 2.3125 40 2.3125 42 0.3125 C44.09375 0.08203125 44.09375 0.08203125 46.5 0.125 C47.2940625 0.13144531 48.088125 0.13789063 48.90625 0.14453125 C51 0.3125 51 0.3125 53 1.3125 C53.06939109 14.96822572 53.12275579 28.62390976 53.15543652 42.27977562 C53.17111852 48.620174 53.19240305 54.96045211 53.22631836 61.30078125 C53.25882136 67.41507785 53.27683389 73.52925849 53.28463173 79.6436348 C53.29019155 81.98093111 53.3010479 84.3182208 53.31719017 86.65546799 C53.33884385 89.91937929 53.34197197 93.18280623 53.34057617 96.44677734 C53.351362 97.42141434 53.36214783 98.39605133 53.3732605 99.40022278 C53.36707451 100.72957603 53.36707451 100.72957603 53.36076355 102.08578491 C53.36352893 102.85824743 53.36629431 103.63070995 53.36914349 104.42658043 C53.24732614 105.04893389 53.12550879 105.67128735 53 106.3125 C48.93150591 109.02482939 46.83523216 108.61949887 42 108.3125 C40 106.3125 40 106.3125 39.75949097 104.36361694 C39.7661528 103.17114853 39.7661528 103.17114853 39.77294922 101.95458984 C39.77310028 101.05380707 39.77325134 100.15302429 39.77340698 99.22494507 C39.78372955 98.25094757 39.79405212 97.27695007 39.8046875 96.2734375 C39.8075174 95.27744537 39.81034729 94.28145325 39.81326294 93.25527954 C39.8244816 90.06589882 39.84958919 86.87679622 39.875 83.6875 C39.88502762 81.52864988 39.89415385 79.36979537 39.90234375 77.2109375 C39.92272711 71.91126429 39.9618727 66.61219443 40 61.3125 C29.11 61.3125 18.22 61.3125 7 61.3125 C7.01160156 64.46554688 7.02320312 67.61859375 7.03515625 70.8671875 C7.04294901 73.91194559 7.04902453 76.95670258 7.05493164 80.00146484 C7.05996872 82.12191259 7.06679859 84.24235685 7.07543945 86.36279297 C7.08753234 89.40593322 7.09323447 92.44902766 7.09765625 95.4921875 C7.10281754 96.44431122 7.10797882 97.39643494 7.11329651 98.37741089 C7.11337204 99.25817291 7.11344757 100.13893494 7.11352539 101.04638672 C7.115746 101.82360077 7.11796661 102.60081482 7.12025452 103.40158081 C7 105.3125 7 105.3125 6 107.3125 C2.44646071 108.4970131 -0.27013478 108.57891894 -4 108.3125 C-6.06496295 106.7867869 -6.88676264 105.89851884 -7.37752342 103.35876465 C-7.37922004 102.24048279 -7.37922004 102.24048279 -7.38095093 101.09960938 C-7.3894104 100.24157715 -7.39786987 99.38354492 -7.40658569 98.49951172 C-7.400513 97.56123535 -7.39444031 96.62295898 -7.38818359 95.65625 C-7.39344055 94.6657666 -7.39869751 93.6752832 -7.40411377 92.65478516 C-7.41734022 89.37386401 -7.40856614 86.09342626 -7.3984375 82.8125 C-7.40045747 80.53710842 -7.40336826 78.26171748 -7.40713501 75.98632812 C-7.41156196 71.21478112 -7.40511526 66.44340246 -7.39111328 61.671875 C-7.37402135 55.54808147 -7.38386053 49.42468237 -7.40183067 43.30090332 C-7.41265841 38.60153213 -7.40922678 33.90225484 -7.4014473 29.20288086 C-7.3994425 26.94457961 -7.40191432 24.6862699 -7.40888596 22.42797852 C-7.41648368 19.27467182 -7.40491941 16.12200863 -7.38818359 12.96875 C-7.39425629 12.03047363 -7.40032898 11.09219727 -7.40658569 10.12548828 C-7.39812622 9.26745605 -7.38966675 8.40942383 -7.38095093 7.52539062 C-7.37981985 6.77986938 -7.37868877 6.03434814 -7.37752342 5.26623535 C-6.57708222 1.12384262 -3.94711149 -0.09718267 0 0 Z " fill="#F8F8F9" transform="translate(94,139.6875)"/>
<path d="M0 0 C2.0055815 0.01368097 4.0113045 -0.02190757 6.01660156 -0.05834961 C16.00037133 -0.04346327 24.84318081 1.79935079 32.97753906 7.88891602 C40.68221388 15.96942863 42.98489753 24.21212516 42.79394531 35.28735352 C41.9651919 46.02289775 37.56300144 53.10337833 29.54003906 60.06079102 C27.61066586 61.52289414 25.7381304 62.57549942 23.54003906 63.57641602 C24.09629212 68.43263023 25.63670794 72.31782767 27.84863281 76.61938477 C28.17541519 77.26966141 28.50219757 77.91993805 28.83888245 78.58992004 C29.87764431 80.65178592 30.92761972 82.70771347 31.97753906 84.76391602 C32.6794039 86.15614501 33.38058265 87.54872012 34.08105469 88.94165039 C34.75296075 90.27204181 35.42546622 91.60213072 36.09863281 92.93188477 C36.41327988 93.55379196 36.72792694 94.17569916 37.05210876 94.81645203 C38.43290667 97.51836133 39.8539062 100.04721673 41.54003906 102.57641602 C41.29003906 105.20141602 41.29003906 105.20141602 40.54003906 107.57641602 C36.91464139 109.38911485 33.46161581 109.48335013 29.54003906 108.57641602 C23.73963065 102.68215582 20.38734571 93.65334404 16.79003906 86.32641602 C16.21382812 85.16883789 15.63761719 84.01125977 15.04394531 82.81860352 C7.45915465 67.50758087 7.45915465 67.50758087 8.54003906 59.57641602 C11.18848704 53.5886206 15.82467725 51.2183236 21.54003906 48.57641602 C22.53003906 48.24641602 23.52003906 47.91641602 24.54003906 47.57641602 C25.66089218 45.23333512 25.66089218 45.23333512 26.54003906 42.57641602 C26.88164062 41.9924707 27.22324219 41.40852539 27.57519531 40.80688477 C29.6238709 36.07087763 29.04236658 30.61852847 28.54003906 25.57641602 C26.27201436 20.60420801 23.23650571 18.27438622 18.54003906 15.57641602 C15.81501999 14.66807632 13.91769936 14.39281616 11.09082031 14.26000977 C10.24326172 14.21811523 9.39570313 14.1762207 8.52246094 14.13305664 C7.64138672 14.09374023 6.7603125 14.05442383 5.85253906 14.01391602 C4.95986328 13.97073242 4.0671875 13.92754883 3.14746094 13.88305664 C0.94513798 13.77706249 -1.25729567 13.67499551 -3.45996094 13.57641602 C-3.45551971 14.73708588 -3.45107849 15.89775574 -3.44650269 17.09359741 C-3.40602345 28.01234219 -3.37600875 38.93107181 -3.35633659 49.8498745 C-3.34588309 55.46383152 -3.3316954 61.07772814 -3.30908203 66.69165039 C-3.2874094 72.10568463 -3.27540412 77.51966064 -3.27020645 82.93373489 C-3.26650064 85.00307762 -3.2592645 87.07241703 -3.24850082 89.14173508 C-3.23406003 92.03197967 -3.23197987 94.92198122 -3.23291016 97.81225586 C-3.2257196 98.67468399 -3.21852905 99.53711212 -3.21112061 100.42567444 C-3.23185661 106.34831169 -3.23185661 106.34831169 -5.45996094 108.57641602 C-12.76430876 109.04018413 -12.76430876 109.04018413 -16.45996094 106.57641602 C-16.84027767 104.7485218 -16.84027767 104.7485218 -16.84764099 102.49050903 C-16.85754562 101.63529663 -16.86745026 100.78008423 -16.87765503 99.8989563 C-16.87315338 98.9586557 -16.86865173 98.0183551 -16.86401367 97.04956055 C-16.87087692 96.06082947 -16.87774017 95.07209839 -16.8848114 94.05340576 C-16.90317258 90.77186889 -16.89922816 87.49080594 -16.89355469 84.20922852 C-16.89811247 81.93480268 -16.90341683 79.66037824 -16.90943909 77.38595581 C-16.91838886 72.61263444 -16.91592636 67.8394802 -16.90600586 63.06616211 C-16.89452227 56.943478 -16.91470932 50.82137113 -16.943923 44.69876289 C-16.96225512 39.99934206 -16.96199833 35.30006025 -16.95628548 30.60061264 C-16.95613185 28.34313015 -16.96221002 26.08563847 -16.97457695 23.82818985 C-16.98942593 20.67244372 -16.9788536 17.51777263 -16.96166992 14.36206055 C-16.97133789 13.42580841 -16.98100586 12.48955627 -16.9909668 11.52493286 C-16.91892461 5.21856687 -16.91892461 5.21856687 -14.61720276 1.99815369 C-10.29432364 -0.85085472 -5.01339517 -0.04762605 0 0 Z " fill="#F9F9FA" transform="translate(180.4599609375,139.423583984375)"/>
<path d="M0 0 C1.0209375 -0.01160156 1.0209375 -0.01160156 2.0625 -0.0234375 C4.60355776 0.49911873 5.38738796 1.36250344 7 3.375 C7.39872742 5.44413757 7.39872742 5.44413757 7.43237305 7.84643555 C7.46206429 9.19749641 7.46206429 9.19749641 7.49235535 10.57585144 C7.49874527 11.54468765 7.50513519 12.51352386 7.51171875 13.51171875 C7.52966995 14.50629593 7.54762115 15.50087311 7.56611633 16.52558899 C7.62033016 19.7045161 7.65415083 22.88329213 7.6875 26.0625 C7.72066326 28.21681795 7.75515199 30.37111594 7.79101562 32.52539062 C7.87606272 37.80845827 7.94436558 43.09154521 8 48.375 C16.27543658 37.45445289 24.45460379 26.50622373 32.16650391 15.17675781 C41.93423162 0.9696909 41.93423162 0.9696909 46.8359375 -0.44140625 C47.67382812 -0.35761719 48.51171875 -0.27382812 49.375 -0.1875 C50.65503906 -0.09662109 50.65503906 -0.09662109 51.9609375 -0.00390625 C54 0.375 54 0.375 55 1.375 C54.84682341 7.98712287 52.07646285 11.6887605 48.125 16.8125 C46.93976504 18.39851442 45.75620356 19.98578066 44.57421875 21.57421875 C43.97657715 22.37134277 43.37893555 23.1684668 42.76318359 23.98974609 C40.06465394 27.64034631 37.49487924 31.37473736 34.9375 35.125 C34.49744629 35.76751709 34.05739258 36.41003418 33.60400391 37.07202148 C32.7824951 38.27414049 31.96610809 39.47978144 31.15576172 40.68945312 C30.02897204 42.33274757 28.82946585 43.92542745 27.62890625 45.515625 C25.75630993 48.16658592 25.75630993 48.16658592 26.21826172 50.69628906 C27.11051501 53.75369166 28.36298859 56.29173175 29.87890625 59.09375 C30.46679932 60.18502197 31.05469238 61.27629395 31.66040039 62.40063477 C32.6019397 64.12044556 32.6019397 64.12044556 33.5625 65.875 C34.2051298 67.05844013 34.84762626 68.24195267 35.48999023 69.42553711 C39.75902592 77.24077138 44.22893129 84.85625557 49 92.375 C54.74047955 101.59925952 54.74047955 101.59925952 54 107.375 C51.70013269 108.52493366 50.18530912 108.6066929 47.625 108.6875 C46.85414062 108.72488281 46.08328125 108.76226562 45.2890625 108.80078125 C42.12097704 108.21149573 41.12827722 106.76424455 39 104.375 C37.90554431 102.65825648 36.8749755 100.89973447 35.8984375 99.11328125 C35.33012207 98.08388428 34.76180664 97.0544873 34.17626953 95.99389648 C33.58185059 94.90278564 32.98743164 93.8116748 32.375 92.6875 C31.13167945 90.43408352 29.88687921 88.18148284 28.640625 85.9296875 C28.02767578 84.82077148 27.41472656 83.71185547 26.78320312 82.56933594 C24.29486639 78.11186088 21.72656882 73.70462809 19.125 69.3125 C18.7026709 68.59940674 18.2803418 67.88631348 17.84521484 67.15161133 C16.8990846 65.55805481 15.94995297 63.96628067 15 62.375 C9.09083195 68.11062486 9.09083195 68.11062486 7.69789124 75.97424316 C7.69575119 76.71493042 7.69361115 77.45561768 7.69140625 78.21875 C7.66625399 79.79036842 7.64085585 81.36198291 7.61523438 82.93359375 C7.5864505 85.40900729 7.56242924 87.88435299 7.54370117 90.35986328 C7.52207883 92.75067654 7.48265234 95.14070668 7.44140625 97.53125 C7.44129044 98.27193726 7.44117462 99.01262451 7.4410553 99.77575684 C7.34216258 104.89742158 7.34216258 104.89742158 5.59350586 107.33813477 C3.61369677 108.62636048 2.35412077 108.80804144 0 108.8125 C-0.680625 108.83183594 -1.36125 108.85117188 -2.0625 108.87109375 C-4 108.375 -4 108.375 -5.59683228 106.9488678 C-7.76271494 102.97593174 -7.41742381 99.15251701 -7.38818359 94.69702148 C-7.39344055 93.71614563 -7.39869751 92.73526978 -7.40411377 91.72467041 C-7.4173204 88.48164968 -7.40857381 85.2391195 -7.3984375 81.99609375 C-7.40045788 79.74455165 -7.40336901 77.49301019 -7.40713501 75.24147034 C-7.41155913 70.52297739 -7.40512371 65.8046548 -7.39111328 61.08618164 C-7.3740117 55.0307966 -7.38386841 48.97581017 -7.40183067 42.92043972 C-7.41265765 38.27168256 -7.40922731 33.62302031 -7.4014473 28.97426033 C-7.3994428 26.74107885 -7.40191328 24.50788882 -7.40888596 22.27471733 C-7.41648351 19.15743969 -7.40492014 16.040813 -7.38818359 12.92358398 C-7.39425629 11.9962294 -7.40032898 11.06887482 -7.40658569 10.11341858 C-7.39812622 9.26524567 -7.38966675 8.41707275 -7.38095093 7.54319763 C-7.37981985 6.80634955 -7.37868877 6.06950148 -7.37752342 5.31032467 C-6.57555741 1.19915032 -3.92206621 -0.04456893 0 0 Z " fill="#F5F5F6" transform="translate(20,139.625)"/>
<path d="M0 0 C1.19109375 0.00773438 1.19109375 0.00773438 2.40625 0.015625 C3.2003125 0.01046875 3.994375 0.0053125 4.8125 0 C6.90625 0.265625 6.90625 0.265625 8.90625 2.265625 C9.10278316 4.87850508 9.17584392 7.38680697 9.16162109 10.00073242 C9.16524155 10.79932678 9.168862 11.59792114 9.17259216 12.42071533 C9.17949599 14.15859521 9.18198976 15.89649681 9.18064499 17.63438988 C9.17968158 20.38802662 9.19260152 23.14127099 9.20962524 25.89485168 C9.25594288 33.72519846 9.28048952 41.55550737 9.28710938 49.38598633 C9.29213324 54.17359039 9.31643307 58.96078838 9.35243607 63.74825478 C9.36221913 65.57060619 9.36457417 67.39301359 9.35926437 69.21538353 C9.3521683 71.77187581 9.36952925 74.32716608 9.39208984 76.88354492 C9.38391739 77.6313472 9.37574493 78.37914948 9.36732483 79.14961243 C9.45229234 84.58497119 10.85139235 87.75887963 13.90625 92.265625 C18.12523841 96.10106901 22.11919079 96.56091077 27.625 96.48046875 C32.27528184 96.04251413 35.06725989 94.14996593 38.21875 90.828125 C41.25129113 86.22315513 41.05635738 81.81220286 41.06396484 76.42358398 C41.06904556 75.63777954 41.07412628 74.8519751 41.07936096 74.0423584 C41.09004471 72.33942713 41.09867268 70.63648199 41.10548019 68.93353081 C41.11728391 66.23971621 41.13673819 63.54606086 41.15859985 60.85231018 C41.22018354 53.19464383 41.27434457 45.53699635 41.30761719 37.87915039 C41.32852545 33.19302773 41.36379083 28.50719979 41.40837479 23.82124519 C41.42255855 22.03467328 41.43126257 20.24804928 41.43442917 18.46142387 C41.43932098 15.96672412 41.46243092 13.47281199 41.48974609 10.97827148 C41.48673996 10.23793167 41.48373383 9.49759186 41.4806366 8.7348175 C41.56202637 3.74643348 41.56202637 3.74643348 43.30899048 1.30628967 C46.39490303 -0.70427914 49.32460539 -0.01863251 52.90625 0.265625 C55.85436909 3.21374409 55.20932348 6.36767926 55.21264648 10.3203125 C55.22097 11.15310226 55.22929352 11.98589203 55.23786926 12.84391785 C55.26204865 15.60953399 55.27075428 18.3749142 55.27734375 21.140625 C55.28630942 23.06437247 55.29543125 24.98811922 55.30470276 26.91186523 C55.32122057 30.95379327 55.328897 34.99563827 55.33178711 39.03759766 C55.33715061 44.19798975 55.37473407 49.35759143 55.42053127 54.51776123 C55.45040292 58.4968341 55.45751298 62.47571981 55.45851326 66.45489502 C55.46270139 68.35576976 55.47507879 70.25664579 55.49603081 72.15740967 C55.70571275 92.83989649 55.70571275 92.83989649 48.02537537 101.34960938 C41.26752485 108.0490702 33.78754918 110.46912261 24.40625 110.828125 C14.70052729 110.53460516 8.2665932 107.17531408 1.4765625 100.40234375 C-3.05081899 94.24195153 -4.68751395 88.90633891 -4.57958984 81.31103516 C-4.58338654 80.45476532 -4.58718323 79.59849548 -4.59109497 78.71627808 C-4.59844992 75.91203104 -4.57719997 73.1088409 -4.5546875 70.3046875 C-4.55230122 68.34793214 -4.55139814 66.39117447 -4.5519104 64.43441772 C-4.54879172 60.34756998 -4.53229062 56.26107538 -4.50537109 52.17431641 C-4.47125732 46.92835398 -4.46374683 41.68277646 -4.46526146 36.43671608 C-4.46471877 32.40306913 -4.45377004 28.36950679 -4.43925858 24.33588791 C-4.43288481 22.40053319 -4.42895033 20.46516888 -4.42747116 18.52980423 C-4.42315192 15.83431741 -4.40568493 13.13924576 -4.38427734 10.44384766 C-4.38518372 9.64074158 -4.38609009 8.8376355 -4.38702393 8.01019287 C-4.29999483 0.54552173 -4.29999483 0.54552173 0 0 Z " fill="#FAFAFB" transform="translate(242.09375,139.734375)"/>
<path d="M0 0 C3 2 3 2 3.37473011 3.86471558 C3.3744785 5.00845139 3.3744785 5.00845139 3.3742218 6.17529297 C3.38474327 7.48768951 3.38474327 7.48768951 3.39547729 8.82659912 C3.38783356 9.78874329 3.38018982 10.75088745 3.37231445 11.7421875 C3.37596512 12.75363831 3.37961578 13.76508911 3.38337708 14.80718994 C3.39150831 18.16329541 3.3778509 21.51892195 3.36328125 24.875 C3.36276295 27.19905599 3.36327947 29.52311242 3.36479187 31.84716797 C3.36470203 36.72304815 3.3542487 41.5987634 3.33618164 46.47460938 C3.31349418 52.73634774 3.31294916 58.99784489 3.31969929 65.25961304 C3.32303482 70.06016193 3.31641702 74.86065545 3.30657005 79.66119385 C3.30271058 81.97055777 3.30157291 84.27992783 3.3031559 86.58929443 C3.30352521 89.81225397 3.29094381 93.0348999 3.2746582 96.2578125 C3.27713562 97.21995667 3.27961304 98.18210083 3.28216553 99.17340088 C3.27153831 100.48579742 3.27153831 100.48579742 3.26069641 101.82470703 C3.25864354 102.58719757 3.25659067 103.34968811 3.25447559 104.13528442 C3 106 3 106 1 108 C-1.59790039 108.24291992 -1.59790039 108.24291992 -4.84765625 108.23046875 C-6.00974609 108.22853516 -7.17183594 108.22660156 -8.36914062 108.22460938 C-9.58794922 108.21236328 -10.80675781 108.20011719 -12.0625 108.1875 C-13.89651367 108.1865332 -13.89651367 108.1865332 -15.76757812 108.18554688 C-24.85988944 108.14011056 -24.85988944 108.14011056 -26 107 C-26.13251122 104.18197387 -26.19988288 101.38784437 -26.22460938 98.56811523 C-26.23599945 97.68349106 -26.24738953 96.79886688 -26.25912476 95.88743591 C-26.36995744 86.61119189 -26.41724645 77.33414006 -26.45996094 68.05737305 C-26.48221463 63.65625902 -26.52394584 59.25599582 -26.58300781 54.85522461 C-26.6541598 49.54364203 -26.69080356 44.23285875 -26.70307922 38.92082405 C-26.71347221 36.89821726 -26.73587837 34.87563424 -26.77067566 32.85330009 C-27.06163123 15.01613655 -27.06163123 15.01613655 -22.61645508 9.82421875 C-20.75813293 8.21728516 -20.75813293 8.21728516 -19 7 C-18.14792969 6.32066406 -17.29585938 5.64132813 -16.41796875 4.94140625 C-15.68191406 4.48636719 -14.94585937 4.03132812 -14.1875 3.5625 C-13.43855469 3.08941406 -12.68960937 2.61632812 -11.91796875 2.12890625 C-8.00823502 -0.17234232 -4.49698507 -0.52539034 0 0 Z " fill="#FDFDFD" transform="translate(491,139)"/>
<path d="M0 0 C0.67417969 0.4640625 1.34835937 0.928125 2.04296875 1.40625 C3.13609375 2.128125 4.22921875 2.85 5.35546875 3.59375 C11.17169826 9.68050181 13.61780746 15.99399191 13.51171875 24.375 C13.04296875 26.40625 13.04296875 26.40625 10.04296875 28.40625 C6.61138541 28.84432447 4.77709302 28.88867452 1.85546875 26.96875 C0.10279344 24.49082973 -0.54478975 22.77176716 -1.39453125 19.90625 C-2.65428139 15.69785394 -4.12704782 13.76316288 -7.95703125 11.40625 C-12.37403607 9.19774759 -18.1492409 9.98512968 -22.95703125 10.40625 C-27.4361814 12.49137162 -30.14612101 14.77836828 -31.95703125 19.40625 C-32.65983348 25.32150209 -32.53473516 29.46561126 -28.95703125 34.40625 C-24.56150754 38.35739109 -19.20402995 41.27728942 -14.1328125 44.27734375 C-13.26325928 44.79224365 -12.39370605 45.30714355 -11.49780273 45.83764648 C-9.75920454 46.86067912 -8.01541868 47.87496122 -6.26586914 48.87915039 C3.68515742 54.69919605 10.35041795 60.32859759 14.04296875 71.40625 C15.11183812 81.16350043 13.23125576 89.46649751 7.5390625 97.5390625 C2.09609485 103.59846263 -4.82723528 106.93639297 -12.87109375 107.8515625 C-22.63073765 108.30359055 -30.84932642 106.73832714 -38.76953125 100.78125 C-43.30220898 96.51709583 -46.54422741 90.98917566 -47.26171875 84.76171875 C-47.26953125 82.28125 -47.26953125 82.28125 -46.95703125 78.40625 C-45.35323784 78.35208812 -43.74891719 78.31338362 -42.14453125 78.28125 C-41.25121094 78.25804687 -40.35789062 78.23484375 -39.4375 78.2109375 C-36.95703125 78.40625 -36.95703125 78.40625 -33.95703125 80.40625 C-32.96484375 82.4296875 -32.96484375 82.4296875 -32.08203125 84.78125 C-30.07671986 89.57857186 -27.63627245 92.0666294 -22.95703125 94.40625 C-17.0000118 94.96338132 -12.00494726 94.92805186 -6.95703125 91.40625 C-2.73065097 87.20283918 -0.81885978 83.56679581 -0.64453125 77.59375 C-0.60714844 76.76230469 -0.56976563 75.93085938 -0.53125 75.07421875 C-1.30556848 70.22229655 -3.8356543 67.24648401 -7.69921875 64.3515625 C-8.73304688 63.75085938 -9.766875 63.15015625 -10.83203125 62.53125 C-11.39575439 62.19665771 -11.95947754 61.86206543 -12.5402832 61.51733398 C-15.51779801 59.76216304 -18.53403504 58.08458504 -21.5703125 56.43359375 C-41.33592955 45.62544877 -41.33592955 45.62544877 -45.3984375 35.96484375 C-47.09531791 28.19241948 -47.64547718 18.54561301 -43.95703125 11.28125 C-34.13638525 -2.98075557 -15.50986746 -9.3526839 0 0 Z " fill="#F6F6F7" transform="translate(358.95703125,142.59375)"/>
<path d="M0 0 C1.23475571 -0.00637985 2.46951141 -0.0127597 3.74168396 -0.01933289 C5.10000571 -0.02086145 6.45832798 -0.02197547 7.81665039 -0.02270508 C9.20048559 -0.02591603 10.58432044 -0.02927997 11.96815491 -0.03279114 C14.87265815 -0.03878857 17.77713162 -0.04063042 20.68164062 -0.04003906 C24.4088281 -0.03993742 28.13582517 -0.05358905 31.86296749 -0.07081127 C34.72222272 -0.08191413 37.58143167 -0.0839588 40.44070625 -0.08342934 C41.8150657 -0.08461207 43.18942625 -0.0890502 44.56376457 -0.0967617 C46.48389116 -0.1065263 48.40407326 -0.10242848 50.32421875 -0.09765625 C51.96516762 -0.09979378 51.96516762 -0.09979378 53.63926697 -0.10197449 C56.22680664 0.14526367 56.22680664 0.14526367 58.22680664 2.14526367 C58.52758789 4.86010742 58.52758789 4.86010742 58.53930664 8.08276367 C58.55606445 9.14366211 58.57282227 10.20456055 58.59008789 11.29760742 C58.22680664 14.14526367 58.22680664 14.14526367 57.00952148 15.80493164 C54.6604478 17.57107989 53.25776904 17.49128117 50.34008789 17.43823242 C49.40229492 17.42856445 48.46450195 17.41889648 47.49829102 17.40893555 C46.03359375 17.37123047 46.03359375 17.37123047 44.53930664 17.33276367 C43.55124023 17.31922852 42.56317383 17.30569336 41.54516602 17.29174805 C39.10516433 17.2563857 36.66625945 17.207034 34.22680664 17.14526367 C34.23346848 18.24107254 34.24013031 19.33688141 34.24699402 20.46589661 C34.30774675 30.78094803 34.35275118 41.09596326 34.38224316 51.41115284 C34.39791487 56.71460729 34.41918065 62.01791759 34.453125 67.32128906 C34.48566469 72.43707895 34.50364831 77.55272997 34.51143837 82.66861534 C34.51699158 84.6227099 34.52783532 86.57679667 34.54399681 88.53083229 C34.56569947 91.26291088 34.56877658 93.99441192 34.56738281 96.7265625 C34.57816864 97.53864166 34.58895447 98.35072083 34.60006714 99.18740845 C34.56989443 104.63496441 34.56989443 104.63496441 32.88130188 107.14653015 C30.34179347 108.67950052 28.16162749 108.54184324 25.22680664 108.52026367 C24.17493164 108.52799805 23.12305664 108.53573242 22.03930664 108.54370117 C19.22680664 108.14526367 19.22680664 108.14526367 17.5723114 107.14653015 C15.41261662 103.93426 15.83656742 100.4657586 15.88623047 96.7265625 C15.88557335 95.43843407 15.88557335 95.43843407 15.88490295 94.12428284 C15.88699441 91.2833896 15.91034221 88.44308517 15.93383789 85.60229492 C15.93943258 83.63360415 15.94370328 81.66490921 15.94670105 79.69621277 C15.95815984 74.51262903 15.98763598 69.32929716 16.02081299 64.14581299 C16.05149156 58.85725309 16.06520166 53.56865252 16.08032227 48.2800293 C16.11250463 37.90166338 16.16371353 27.52348446 16.22680664 17.14526367 C15.63665771 17.16097412 15.04650879 17.17668457 14.43847656 17.19287109 C11.76385078 17.25524306 9.089378 17.29426025 6.41430664 17.33276367 C5.48553711 17.35790039 4.55676758 17.38303711 3.59985352 17.40893555 C2.26083984 17.4234375 2.26083984 17.4234375 0.89477539 17.43823242 C0.07259521 17.45394287 -0.74958496 17.46965332 -1.59667969 17.48583984 C-4.30363746 17.06226092 -5.16716574 16.33524332 -6.77319336 14.14526367 C-7.10131836 11.04370117 -7.10131836 11.04370117 -7.02319336 7.52026367 C-7.00772461 6.35237305 -6.99225586 5.18448242 -6.97631836 3.98120117 C-6.61995634 -0.99416092 -4.49434838 0.01567144 0 0 Z " fill="#FBFBFB" transform="translate(663.773193359375,139.854736328125)"/>
<path d="M0 0 C1.24910156 0.00386719 2.49820313 0.00773438 3.78515625 0.01171875 C6.9375 0.3125 6.9375 0.3125 8.9375 2.3125 C9.19756222 4.14039421 9.19756222 4.14039421 9.21165466 6.39840698 C9.22661736 7.68122559 9.22661736 7.68122559 9.24188232 8.98995972 C9.242547 9.93026031 9.24321167 10.87056091 9.24389648 11.83935547 C9.25222 12.82808655 9.26054352 13.81681763 9.26911926 14.83551025 C9.29329299 18.11694226 9.30200039 21.39817579 9.30859375 24.6796875 C9.31755445 26.95411237 9.32667618 29.2285366 9.33595276 31.50296021 C9.35246536 36.27623937 9.36014701 41.04944821 9.36303711 45.82275391 C9.36842327 51.94550206 9.40610394 58.06759119 9.45178127 64.19015312 C9.48149316 68.88956121 9.48875939 73.5888095 9.48976326 78.28830338 C9.49397721 80.54580835 9.50645819 82.8033133 9.52728081 85.06072617 C9.55407281 88.2165983 9.54940553 91.3709285 9.53686523 94.52685547 C9.55169952 95.4631076 9.56653381 96.39935974 9.58181763 97.36398315 C9.51004667 103.69196783 9.51004667 103.69196783 6.55848694 106.89089966 C3.73714119 108.42117286 2.06403001 108.85193159 -1.125 108.8125 C-2.37990234 108.82796875 -2.37990234 108.82796875 -3.66015625 108.84375 C-7.043149 108.09564104 -8.00512017 107.12499948 -10.0625 104.3125 C-10.66394791 101.0909809 -10.59836423 97.90355205 -10.56420898 94.63452148 C-10.56961197 93.65364563 -10.57501495 92.67276978 -10.58058167 91.66217041 C-10.59309211 88.41900489 -10.57656324 85.17672298 -10.55859375 81.93359375 C-10.55874867 79.68205214 -10.5602365 77.43051025 -10.56300354 75.17897034 C-10.56438853 70.46042085 -10.55181136 65.74217496 -10.52905273 61.02368164 C-10.50065181 54.96827881 -10.50340864 48.91337994 -10.51614285 42.85793972 C-10.52308924 38.20916928 -10.51532287 33.56051584 -10.50288582 28.91176033 C-10.49836237 26.67858389 -10.49804228 24.44539493 -10.50195122 22.21221733 C-10.50485362 19.09490975 -10.48840315 15.97830312 -10.46655273 12.86108398 C-10.47105438 11.9337294 -10.47555603 11.00637482 -10.48019409 10.05091858 C-10.47028946 9.20274567 -10.46038483 8.35457275 -10.45018005 7.48069763 C-10.44775016 6.74384955 -10.44532026 6.00700148 -10.44281673 5.24782467 C-9.33175635 -0.40604846 -4.90105149 -0.06588797 0 0 Z " fill="#F4F5F5" transform="translate(637.0625,139.6875)"/>
<path d="M0 0 C0.33 0 0.66 0 1 0 C1 29.37 1 58.74 1 89 C0.67 89 0.34 89 0 89 C-0.33 83.72 -0.66 78.44 -1 73 C-3.31 73.99 -5.62 74.98 -8 76 C-8 75.34 -8 74.68 -8 74 C-11.60992379 74.65585189 -11.60992379 74.65585189 -15 76 C-15 52.24 -15 28.48 -15 4 C-13.35 3.67 -11.7 3.34 -10 3 C-10 3.99 -10 4.98 -10 6 C-9.67 5.34 -9.34 4.68 -9 4 C-8.34 4 -7.68 4 -7 4 C-6.67 5.98 -6.34 7.96 -6 10 C-4.35 10 -2.7 10 -1 10 C-0.67 6.7 -0.34 3.4 0 0 Z " fill="#38393D" transform="translate(464,156)"/>
<path d="M0 0 C3.135 -0.0825 6.27 -0.165 9.5 -0.25 C10.47130859 -0.28641602 11.44261719 -0.32283203 12.44335938 -0.36035156 C18.48059497 -0.43649245 22.98246736 0.53971094 28 4 C32.56976078 8.80410749 33.4354852 12.91542287 33.33203125 19.3671875 C32.66257188 24.67560653 30.10638769 27.97254018 26.33203125 31.60546875 C18.74105657 37.01460639 8.80002947 35.30769334 0 35 C0 23.45 0 11.9 0 0 Z " fill="#303135" transform="translate(751,156)"/>
<path d="M0 0 C0.66 0 1.32 0 2 0 C2.33 0.99 2.66 1.98 3 3 C4.32 2.67 5.64 2.34 7 2 C7.33 3.32 7.66 4.64 8 6 C8.99 6 9.98 6 11 6 C10.34 4.68 9.68 3.36 9 2 C10.98 1.34 12.96 0.68 15 0 C15.66 0.66 16.32 1.32 17 2 C16.525625 2.350625 16.05125 2.70125 15.5625 3.0625 C13.3287274 5.83237802 13.38590222 8.52688005 13 12 C12.67 12.33 12.34 12.66 12 13 C12.78375 13.144375 13.5675 13.28875 14.375 13.4375 C17 14 17 14 19 15 C19.99 15 20.98 15 22 15 C22.33 16.32 22.66 17.64 23 19 C23 18.01 23 17.02 23 16 C23.66 16 24.32 16 25 16 C25 15.01 25 14.02 25 13 C25.66 13 26.32 13 27 13 C27.33 12.01 27.66 11.02 28 10 C29 11 29 11 29.09765625 13.37670898 C29.08605469 14.40610596 29.07445312 15.43550293 29.0625 16.49609375 C29.05476563 17.61177734 29.04703125 18.72746094 29.0390625 19.87695312 C29.01306368 22.24674526 28.98702216 24.61653693 28.9609375 26.98632812 C28.95320313 28.10330078 28.94546875 29.22027344 28.9375 30.37109375 C28.92589844 31.40161865 28.91429687 32.43214355 28.90234375 33.49389648 C28.82757557 35.99852399 28.82757557 35.99852399 30 38 C19.77 38 9.54 38 -1 38 C-0.67 37.34 -0.34 36.68 0 36 C0.08675538 33.30106819 0.11557897 30.62830769 0.09765625 27.9296875 C0.0962413 27.13345978 0.09482635 26.33723206 0.09336853 25.51687622 C0.08776345 22.9695462 0.07521014 20.42230353 0.0625 17.875 C0.05748565 16.14974085 0.05292263 14.42448033 0.04882812 12.69921875 C0.03779237 8.46611209 0.02052436 4.23307086 0 0 Z " fill="#313237" transform="translate(403,150)"/>
<path d="M0 0 C0.99 0.33 1.98 0.66 3 1 C2.32629532 4.22045642 1.14684447 6.87122059 -0.3125 9.8125 C-5.41583302 20.95378808 -7.74296844 31.76165879 -7 44 C-6.69449219 43.33355469 -6.38898438 42.66710937 -6.07421875 41.98046875 C3.30445466 23.09102794 22.08016623 12.64613259 41 5 C43.32145408 4.26552865 45.64514705 3.62396104 48 3 C46.02520657 5.0759596 44.06978865 6.72606049 41.6640625 8.27734375 C24.3245822 19.6776085 9.29133508 32.59449771 1.9375 52.57421875 C1 55 1 55 -1 58 C-0.97679687 57.31292969 -0.95359375 56.62585938 -0.9296875 55.91796875 C-0.91164063 55.01691406 -0.89359375 54.11585937 -0.875 53.1875 C-0.85179687 52.29417969 -0.82859375 51.40085938 -0.8046875 50.48046875 C-0.81714173 47.74597286 -0.81714173 47.74597286 -3 45 C-4.98 45.495 -4.98 45.495 -7 46 C-7 46.66 -7 47.32 -7 48 C-8.98 48.495 -8.98 48.495 -11 49 C-11 48.01 -11 47.02 -11 46 C-10.34 46 -9.68 46 -9 46 C-9 43.36 -9 40.72 -9 38 C-9.66 37.67 -10.32 37.34 -11 37 C-10.79503906 36.21496094 -10.59007812 35.42992187 -10.37890625 34.62109375 C-8.67875142 28.01977313 -8.67875142 28.01977313 -7.5 21.3125 C-6.66408582 15.77456858 -5.11353292 10.67029938 -2 6 C-1.34 6 -0.68 6 0 6 C0 4.02 0 2.04 0 0 Z " fill="#2B342C" transform="translate(465,47)"/>
<path d="M0 0 C4.65821708 0.0519228 7.25178017 1.18601429 10.8125 4.3125 C13.16492347 7.52035018 13.2809209 10.40899252 12.8125 14.3125 C10.52832225 18.62705798 8.37255984 21.44702098 3.8125 23.3125 C-0.49703007 24.0219958 -3.29013655 23.85872123 -7.0625 21.5625 C-9.58669063 18.88982757 -11.08004215 16.85272914 -11.33984375 13.12890625 C-10.92424566 8.76890449 -10.58039626 6.78397551 -7.6875 3.3125 C-6.8625 2.6525 -6.0375 1.9925 -5.1875 1.3125 C-3.63719882 -0.23780118 -2.15073999 0.06844901 0 0 Z " fill="#28292B" transform="translate(882.1875,137.6875)"/>
<path d="M0 0 C2.88671875 1.671875 2.88671875 1.671875 5.6875 3.75 C6.61949219 4.42546875 7.55148437 5.1009375 8.51171875 5.796875 C11.75495404 8.66843654 13.6988522 11.13701705 14.3984375 15.46484375 C14.33333221 22.33345142 13.21503316 26.43522476 8.625 31.75 C3.0519331 36.52691448 -1.95010718 36.24640402 -9 36 C-9 35.34 -9 34.68 -9 34 C-7.515 33.505 -7.515 33.505 -6 33 C-6.33 32.34 -6.66 31.68 -7 31 C-6.195625 30.4225 -5.39125 29.845 -4.5625 29.25 C-2.02133261 27.01873107 -1.34879632 26.25543229 -1 23 C0.65 23 2.3 23 4 23 C4 22.34 4 21.68 4 21 C5.9375 20.4375 5.9375 20.4375 8 20 C8.33 20.33 8.66 20.66 9 21 C9.33 20.34 9.66 19.68 10 19 C8.68 19 7.36 19 6 19 C6 17.68 6 16.36 6 15 C4.48990073 13.22239242 4.48990073 13.22239242 2.5 11.75 C1.8503125 11.22921875 1.200625 10.7084375 0.53125 10.171875 C0.0259375 9.78515625 -0.479375 9.3984375 -1 9 C-0.01 8.01 0.98 7.02 2 6 C1.01 6 0.02 6 -1 6 C-1.66 6.66 -2.32 7.32 -3 8 C-3 6.66666667 -3 5.33333333 -3 4 C-3.61875 4.495 -4.2375 4.99 -4.875 5.5 C-7 7 -7 7 -9 7 C-8.74438677 4.6568787 -8.40729228 2.32156597 -8 0 C-5.02751941 -1.4862403 -3.18974041 -0.78682835 0 0 Z " fill="#313237" transform="translate(345,202)"/>
<path d="M0 0 C2 1 2 1 3.18359375 4.46484375 C3.60956226 5.95346326 4.02704334 7.44452896 4.4375 8.9375 C4.87720455 10.49360256 5.31730713 12.0495927 5.7578125 13.60546875 C5.96954102 14.36134277 6.18126953 15.1172168 6.39941406 15.89599609 C7.36043711 19.26270203 8.4358322 22.59294311 9.51953125 25.921875 C10 28 10 28 10 33 C3.73 33 -2.54 33 -9 33 C-7.87676388 22.89087488 -7.87676388 22.89087488 -6.6875 19.25 C-6.42582031 18.43144531 -6.16414062 17.61289063 -5.89453125 16.76953125 C-5.59933594 15.85558594 -5.30414062 14.94164062 -5 14 C-4.29091802 11.64605872 -3.58260248 9.29188644 -2.875 6.9375 C-1.12520868 1.12520868 -1.12520868 1.12520868 0 0 Z " fill="#2C2D31" transform="translate(847,172)"/>
<path d="M0 0 C6.94178331 1.83841729 13.12386952 4.27795669 19.4375 7.6875 C20.2615332 8.12811768 21.08556641 8.56873535 21.93457031 9.02270508 C28.37722247 12.53094832 34.34813669 16.29509792 40 21 C40.95712891 21.78890625 40.95712891 21.78890625 41.93359375 22.59375 C47.52572879 27.67524465 51.53418925 34.33844167 55 41 C55 41.99 55 42.98 55 44 C54.34 44 53.68 44 53 44 C51.6875 42.0625 51.6875 42.0625 50 39 C49.56945312 38.25234375 49.13890625 37.5046875 48.6953125 36.734375 C45 30.26235876 45 30.26235876 45 28 C43.68 27.34 42.36 26.68 41 26 C41 25.34 41 24.68 41 24 C39.68 23.67 38.36 23.34 37 23 C36.06213918 28.05009595 36.06213918 28.05009595 37 33 C37.66 33 38.32 33 39 33 C39 33.99 39 34.98 39 36 C39.99 35.67 40.98 35.34 42 35 C42 36.32 42 37.64 42 39 C42.99 39.66 43.98 40.32 45 41 C45.6875 43.625 45.6875 43.625 46 46 C42.24104054 44.74701351 41.99756333 43.6853203 40.0625 40.3125 C31.48246952 26.39257714 19.85767667 14.59667598 6.2265625 5.60546875 C3.8978963 3.92637786 1.9745919 2.07828051 0 0 Z " fill="#293525" transform="translate(391,50)"/>
<path d="M0 0 C0.33 0 0.66 0 1 0 C1.90921343 34.94876531 1.90921343 34.94876531 -6 48 C-6.74743111 49.64950314 -7.45696972 51.3167741 -8.125 53 C-8.45757813 53.825 -8.79015625 54.65 -9.1328125 55.5 C-9.99756857 57.99299047 -10.54245771 60.4043274 -11 63 C-11.375 64.875 -11.375 64.875 -12 67 C-12.33 68.19625 -12.66 69.3925 -13 70.625 C-15 74 -15 74 -17.09375 74.89453125 C-20.45393986 75.65275591 -23.55401439 76 -27 76 C-27 76.33 -27 76.66 -27 77 C-29.31 77 -31.62 77 -34 77 C-34.495 78.485 -34.495 78.485 -35 80 C-36.84765625 80.73046875 -36.84765625 80.73046875 -39.0625 81.1875 C-39.79597656 81.34605469 -40.52945312 81.50460938 -41.28515625 81.66796875 C-42.13400391 81.83232422 -42.13400391 81.83232422 -43 82 C-43 82.66 -43 83.32 -43 84 C-44.32 84 -45.64 84 -47 84 C-47 84.66 -47 85.32 -47 86 C-64.80452292 91.38197556 -64.80452292 91.38197556 -70.28515625 89.01171875 C-70.85105469 88.67785156 -71.41695313 88.34398438 -72 88 C-70.99582031 87.84144531 -69.99164063 87.68289062 -68.95703125 87.51953125 C-47.96806999 84.01749997 -27.35908549 75.07887393 -14.22265625 57.640625 C-2.10439019 39.71513735 -0.69187484 21.07124526 0 0 Z " fill="#2C3729" transform="translate(539,20)"/>
<path d="M0 0 C0.66 0 1.32 0 2 0 C2.33 1.65 2.66 3.3 3 5 C3.66 5 4.32 5 5 5 C5.12117188 5.56847656 5.24234375 6.13695312 5.3671875 6.72265625 C6.41322054 11.54245464 7.59204484 16.2732934 9 21 C9.99 21 10.98 21 12 21 C12.20625 21.680625 12.4125 22.36125 12.625 23.0625 C15.83439014 29.91892438 20.85243556 33.88966828 27.2421875 37.73828125 C28.11230469 38.36283203 28.11230469 38.36283203 29 39 C29 39.66 29 40.32 29 41 C29.71027344 41.18175781 30.42054688 41.36351562 31.15234375 41.55078125 C32.53099609 41.92783203 32.53099609 41.92783203 33.9375 42.3125 C34.85402344 42.55613281 35.77054687 42.79976562 36.71484375 43.05078125 C37.46894531 43.36402344 38.22304688 43.67726562 39 44 C39.33 44.99 39.66 45.98 40 47 C45.41132683 47.91967922 50.83736926 48.71433137 56.26953125 49.5 C59 50 59 50 60 51 C62.33297433 51.04092937 64.66705225 51.04241723 67 51 C66.45276317 47.62537285 65.9451 45.91765 64 43 C63.01 43 62.02 43 61 43 C61 39.7 61 36.4 61 33 C60.34 33 59.68 33 59 33 C58.773125 32.38125 58.54625 31.7625 58.3125 31.125 C57.16497693 28.77341306 57.16497693 28.77341306 54.5625 28.125 C51.02155061 26.57043685 50.51182734 24.45560535 49 21 C48.34 20.34 47.68 19.68 47 19 C47.495 17.515 47.495 17.515 48 16 C57.41780784 25.61144501 66.48626025 36.09723736 71 49 C70.6875 51.9375 70.6875 51.9375 70 54 C52.71533888 55.49867004 36.24731787 48.49063585 22.6875 38.125 C12.10346746 29.16533433 3.20042589 17.73920205 0 4 C0 2.68 0 1.36 0 0 Z " fill="#739156" transform="translate(367,53)"/>
<path d="M0 0 C2.31 0.33 4.62 0.66 7 1 C7 2.66666667 7 4.33333333 7 6 C6.01 6 5.02 6 4 6 C3.3185177 7.89179203 3.3185177 7.89179203 3 10 C3.66 10.66 4.32 11.32 5 12 C4.34 12.804375 3.68 13.60875 3 14.4375 C0.89745486 16.58961915 0.89745486 16.58961915 1 18 C-0.7015625 18.2165625 -0.7015625 18.2165625 -2.4375 18.4375 C-5.80777201 18.61171478 -5.80777201 18.61171478 -7 20 C-7.12544026 23.16542793 -7.1861406 26.31007036 -7.20532227 29.47680664 C-7.21522186 30.47181686 -7.22512146 31.46682709 -7.23532104 32.49198914 C-7.2670404 35.79802021 -7.29173455 39.10406567 -7.31640625 42.41015625 C-7.33696678 44.69559616 -7.357963 46.98103218 -7.37937927 49.26646423 C-7.43469307 55.29494086 -7.48406116 61.32345233 -7.53222656 67.35198975 C-7.58237381 73.49836342 -7.63809516 79.64468621 -7.69335938 85.79101562 C-7.80105472 97.86063367 -7.90247426 109.9302958 -8 122 C-8.33 122 -8.66 122 -9 122 C-9 88.34 -9 54.68 -9 20 C-9.99 19.67 -10.98 19.34 -12 19 C-12.66 18.01 -13.32 17.02 -14 16 C-12.68 16 -11.36 16 -10 16 C-9.855625 15.195625 -9.71125 14.39125 -9.5625 13.5625 C-9 11 -9 11 -8 10 C-8.99 10 -9.98 10 -11 10 C-11 9.34 -11 8.68 -11 8 C-10.05125 7.71125 -9.1025 7.4225 -8.125 7.125 C-4.94788422 6.23174891 -4.94788422 6.23174891 -3 4 C-2.34 4.33 -1.68 4.66 -1 5 C-0.67 3.35 -0.34 1.7 0 0 Z " fill="#49494F" transform="translate(396,122)"/>
<path d="M0 0 C0.33 0.66 0.66 1.32 1 2 C1.66 2 2.32 2 3 2 C3 1.34 3 0.68 3 0 C3.66 0 4.32 0 5 0 C5 0.99 5 1.98 5 3 C6.32 2.67 7.64 2.34 9 2 C7.94124926 5.40312738 6.99097846 8.01353231 5 11 C2.875 11.6875 2.875 11.6875 1 12 C2.20381448 14.49361571 3.45428722 16.68143083 5 19 C7.05925139 19.72382467 7.05925139 19.72382467 9 20 C9.33 21.65 9.66 23.3 10 25 C10.99 25.33 11.98 25.66 13 26 C13 26.99 13 27.98 13 29 C13.33 29.66 13.66 30.32 14 31 C13.01 31.99 12.02 32.98 11 34 C11.309375 34.598125 11.61875 35.19625 11.9375 35.8125 C13 38 13 38 14 41 C13.01 41 12.02 41 11 41 C11.33 41.99 11.66 42.98 12 44 C11.01 44.495 11.01 44.495 10 45 C8 44 8 44 6.9921875 41.53515625 C6.62351562 40.38917969 6.25484375 39.24320313 5.875 38.0625 C5.66979736 37.42948975 5.46459473 36.79647949 5.25317383 36.14428711 C1.71561065 25.13471887 -1.62800006 14.06111497 -5 3 C-3.68 3 -2.36 3 -1 3 C-0.67 2.01 -0.34 1.02 0 0 Z " fill="#313237" transform="translate(546,157)"/>
<path d="M0 0 C4.65821708 0.0519228 7.25178017 1.18601429 10.8125 4.3125 C13.16492347 7.52035018 13.2809209 10.40899252 12.8125 14.3125 C10.52832225 18.62705798 8.37255984 21.44702098 3.8125 23.3125 C-0.49703007 24.0219958 -3.29013655 23.85872123 -7.0625 21.5625 C-9.58669063 18.88982757 -11.08004215 16.85272914 -11.33984375 13.12890625 C-10.92424566 8.76890449 -10.58039626 6.78397551 -7.6875 3.3125 C-6.8625 2.6525 -6.0375 1.9925 -5.1875 1.3125 C-3.63719882 -0.23780118 -2.15073999 0.06844901 0 0 Z M-7.1875 6.3125 C-8.60478731 10.75499123 -8.73043984 14.10322491 -6.8125 18.375 C-3.53054545 20.79739502 -1.40311595 21.09820491 2.6171875 20.859375 C5.16910363 20.39359953 5.16910363 20.39359953 7.875 17.75 C10.12661371 13.75520148 10.63180248 11.81866365 9.8125 7.3125 C7.89583333 4.22916667 7.89583333 4.22916667 4.8125 2.3125 C-0.52138989 1.4552677 -3.69320121 2.09878676 -7.1875 6.3125 Z " fill="#CACBCE" transform="translate(882.1875,137.6875)"/>
<path d="M0 0 C2.95384268 2.95384268 3.81397705 6.48389029 5.1875 10.375 C5.47302734 11.14328125 5.75855469 11.9115625 6.05273438 12.703125 C6.31763672 13.44820312 6.58253906 14.19328125 6.85546875 14.9609375 C7.22128052 15.97873291 7.22128052 15.97873291 7.59448242 17.01708984 C8.07829218 19.38283509 7.83186905 20.74494385 7 23 C5 25.25 5 25.25 3 27 C2.67 27 2.34 27 2 27 C1.67 39.54 1.34 52.08 1 65 C0.67 65 0.34 65 0 65 C0 43.55 0 22.1 0 0 Z " fill="#5D5D61" transform="translate(528,179)"/>
<path d="M0 0 C0.66 0.33 1.32 0.66 2 1 C1.21496094 1.51949219 0.42992187 2.03898437 -0.37890625 2.57421875 C-5.98622354 6.29637661 -11.55682628 10.0413282 -17 14 C-17.66 13.67 -18.32 13.34 -19 13 C-18.67 12.67 -18.34 12.34 -18 12 C-22.50469236 12.51482198 -24.57034023 14.11596792 -28 17 C-29.47551231 17.92253738 -30.95503867 18.83867118 -32.4375 19.75 C-36.49498138 22.40088783 -39.09525824 25.27678989 -41.80859375 29.265625 C-43 31 -43 31 -45 33 C-44.67 33.66 -44.34 34.32 -44 35 C-45.32 35 -46.64 35 -48 35 C-47.29056263 27.8153343 -41.2897564 23.34510449 -36 19 C-26.460189 11.92907896 -15.87992298 6.66471728 -5 2 C-4.07574219 1.5875 -3.15148437 1.175 -2.19921875 0.75 C-1.47347656 0.5025 -0.74773437 0.255 0 0 Z " fill="#253720" transform="translate(511,50)"/>
<path d="M0 0 C2.64 0 5.28 0 8 0 C8 0.99 8 1.98 8 3 C7.23816406 3.268125 6.47632813 3.53625 5.69140625 3.8125 C-1.1648394 6.41462069 -5.97065177 9.21942893 -11.0625 14.5234375 C-13 16 -13 16 -15.25 15.7265625 C-16.11625 15.36691406 -16.11625 15.36691406 -17 15 C-16.67 14.01 -16.34 13.02 -16 12 C-15.67 12.33 -15.34 12.66 -15 13 C-15 11.02 -15 9.04 -15 7 C-15.99 7.33 -16.98 7.66 -18 8 C-18 7.01 -18 6.02 -18 5 C-14.535 4.505 -14.535 4.505 -11 4 C-11 4.66 -11 5.32 -11 6 C-10.2575 5.34 -9.515 4.68 -8.75 4 C-5.53268113 1.66013173 -3.85056395 2 0 2 C0 1.34 0 0.68 0 0 Z " fill="#323337" transform="translate(481,135)"/>
<path d="M0 0 C16.23488881 3.9378241 28.59947636 14.37028754 38 28 C41.45277876 33.78977405 43.65662606 39.40525519 45 46 C42.27042661 43.64264116 41.11106604 41.41866474 40 38 C40 37.01 40 36.02 40 35 C39.34 35 38.68 35 38 35 C37.67 33.35 37.34 31.7 37 30 C36.38125 29.91363281 35.7625 29.82726562 35.125 29.73828125 C33 29 33 29 31.875 27.29296875 C31.58625 26.59816406 31.2975 25.90335938 31 25.1875 C29.43867193 21.75870111 27.87556873 19.5045276 25 17 C24.525625 16.46375 24.05125 15.9275 23.5625 15.375 C21.56285539 13.61531275 19.49516067 12.87667807 17 12 C17 11.34 17 10.68 17 10 C16.34 9.67 15.68 9.34 15 9 C15 8.34 15 7.68 15 7 C13.02 7 11.04 7 9 7 C8.67 6.01 8.34 5.02 8 4 C6.14255793 3.38932856 6.14255793 3.38932856 4 3 C2.6520257 2.36345658 1.31403276 1.70394612 0 1 C0 0.67 0 0.34 0 0 Z " fill="#759157" transform="translate(400,24)"/>
<path d="M0 0 C-1.47077951 1.47077951 -2.96623993 1.43470082 -5 1.8125 C-10.01671046 2.8766507 -14.40972495 4.75313497 -19 7 C-19.72960937 7.33128906 -20.45921875 7.66257812 -21.2109375 8.00390625 C-23.17395691 8.85561203 -23.17395691 8.85561203 -23.8125 10.9375 C-25.38795407 13.67381497 -27.33868857 14.06295714 -30.19140625 15.16015625 C-34.92678224 17.35908895 -37.52425917 21.61118671 -40 26 C-40.7115625 26.8971875 -40.7115625 26.8971875 -41.4375 27.8125 C-43.71123872 30.9957342 -45.31581386 34.47774269 -47 38 C-47.66 38 -48.32 38 -49 38 C-46.46686619 29.52710414 -41.651597 21.85974022 -35 16 C-34.38898438 15.39800781 -33.77796875 14.79601562 -33.1484375 14.17578125 C-25.29658478 6.68083093 -11.54552134 -3.84850711 0 0 Z " fill="#729155" transform="translate(511,24)"/>
<path d="M0 0 C0.33 0 0.66 0 1 0 C1 14.85 1 29.7 1 45 C-9.89 45 -20.78 45 -32 45 C-32 43.02 -32 41.04 -32 39 C-31.63737061 39.48895752 -31.27474121 39.97791504 -30.90112305 40.48168945 C-28.14295877 42.68446634 -26.07461838 42.34037944 -22.58203125 42.29296875 C-20.88784058 42.28172974 -20.88784058 42.28172974 -19.15942383 42.27026367 C-17.00769653 42.22929565 -17.00769653 42.22929565 -14.8125 42.1875 C-7.9753125 42.0946875 -7.9753125 42.0946875 -1 42 C-0.67 28.14 -0.34 14.28 0 0 Z " fill="#515155" transform="translate(133,143)"/>
<path d="M0 0 C0.721875 0.00257813 1.44375 0.00515625 2.1875 0.0078125 C2.909375 0.00523437 3.63125 0.00265625 4.375 0 C6.1875 0.1328125 6.1875 0.1328125 7.1875 1.1328125 C7.25976502 2.98568752 7.2713122 4.84115128 7.25 6.6953125 C7.24097656 7.70722656 7.23195313 8.71914062 7.22265625 9.76171875 C7.21105469 10.54417969 7.19945312 11.32664063 7.1875 12.1328125 C6.1975 12.1328125 5.2075 12.1328125 4.1875 12.1328125 C3.8575 11.1428125 3.5275 10.1528125 3.1875 9.1328125 C2.1975 8.8028125 1.2075 8.4728125 0.1875 8.1328125 C0.1875 9.7828125 0.1875 11.4328125 0.1875 13.1328125 C-0.8025 13.1328125 -1.7925 13.1328125 -2.8125 13.1328125 C-2.83936553 11.15371852 -2.85883375 9.17452279 -2.875 7.1953125 C-2.88660156 6.09316406 -2.89820313 4.99101562 -2.91015625 3.85546875 C-2.77917266 0.20364627 -2.77917266 0.20364627 0 0 Z " fill="#A9AAAC" transform="translate(880.8125,142.8671875)"/>
<path d="M0 0 C6.15234375 -0.09765625 6.15234375 -0.09765625 8 0 C8.33 0.33 8.66 0.66 9 1 C11.04308298 1.21427973 13.08707295 1.42208775 15.1340332 1.59545898 C28.99785833 2.77386424 41.01117019 5.59513453 53 13 C52.67 13.66 52.34 14.32 52 15 C51.35675781 14.68546875 50.71351563 14.3709375 50.05078125 14.046875 C33.79299825 6.34704054 17.75518302 3.85621441 0 3 C0 2.01 0 1.02 0 0 Z " fill="#293720" transform="translate(364,16)"/>
<path d="M0 0 C0.66 0.33 1.32 0.66 2 1 C1.77183594 1.81984375 1.54367187 2.6396875 1.30859375 3.484375 C1.02113281 4.56203125 0.73367188 5.6396875 0.4375 6.75 C0.14746094 7.81734375 -0.14257812 8.8846875 -0.44140625 9.984375 C-0.97098494 12.84335927 -0.98370862 14.31597383 0 17 C0.33 16.34 0.66 15.68 1 15 C1.99 14.67 2.98 14.34 4 14 C4.66 13.01 5.32 12.02 6 11 C6.66 11 7.32 11 8 11 C8 10.34 8 9.68 8 9 C8.66 9 9.32 9 10 9 C8.70647285 11.82614225 7.30607134 13.92359131 5.1875 16.1875 C1.73753265 20.08672599 -0.63459855 24.38432726 -3 29 C-3.33 29 -3.66 29 -4 29 C-4.58621957 18.43176379 -3.14938822 10.03867495 0 0 Z " fill="#719151" transform="translate(461,63)"/>
<path d="M0 0 C3.38457255 0.60438796 5.3000178 1.93001365 8 4 C8.66 4 9.32 4 10 4 C12 6 12 6 13 8 C13.99 8 14.98 8 16 8 C16 8.66 16 9.32 16 10 C16.66 10.33 17.32 10.66 18 11 C17.95875 11.7425 17.9175 12.485 17.875 13.25 C18.01020662 16.22454562 18.56681916 17.4353606 20 20 C21.97465607 24.17715706 23.42361335 27.34025316 23 32 C21.86398912 29.73884917 20.74854968 27.47217425 19.66015625 25.1875 C15.25790926 16.4045329 9.89063194 9.91257662 3 3 C2.39671875 2.39414062 1.7934375 1.78828125 1.171875 1.1640625 C0.78515625 0.77992187 0.3984375 0.39578125 0 0 Z " fill="#293525" transform="translate(421,34)"/>
<path d="M0 0 C0.66 0.33 1.32 0.66 2 1 C-8.05164508 11.94512464 -24.33506468 24.44935064 -39.875 25.125 C-40.926875 25.063125 -40.926875 25.063125 -42 25 C-39.14521674 23.09681116 -37.58058692 22.5380901 -34.3125 21.875 C-33.50425781 21.70742187 -32.69601562 21.53984375 -31.86328125 21.3671875 C-31.24839844 21.24601562 -30.63351562 21.12484375 -30 21 C-30 20.34 -30 19.68 -30 19 C-29.35933594 18.75765625 -28.71867187 18.5153125 -28.05859375 18.265625 C-18.77332144 15.23253033 -18.77332144 15.23253033 -12 9 C-10.68 9 -9.36 9 -8 9 C-7.34 7.68 -6.68 6.36 -6 5 C-5.34 5 -4.68 5 -4 5 C-4 4.34 -4 3.68 -4 3 C-2 1.375 -2 1.375 0 0 Z " fill="#769659" transform="translate(520,81)"/>
<path d="M0 0 C0 0.66 0 1.32 0 2 C-1.7015625 2.680625 -1.7015625 2.680625 -3.4375 3.375 C-7.04721692 4.57095806 -7.04721692 4.57095806 -8 7 C-7.34 7.33 -6.68 7.66 -6 8 C-7.65 9.65 -9.3 11.3 -11 13 C-12.98 12.01 -14.96 11.02 -17 10 C-16.67 9.01 -16.34 8.02 -16 7 C-15.65772583 5.66893378 -15.32248257 4.33599921 -15 3 C-13.9275 2.87625 -12.855 2.7525 -11.75 2.625 C-7.2901877 1.88169795 -4.54836454 0 0 0 Z " fill="#323337" transform="translate(369,130)"/>
<path d="M0 0 C-0.639375 0.103125 -1.27875 0.20625 -1.9375 0.3125 C-2.618125 0.539375 -3.29875 0.76625 -4 1 C-4.33 1.99 -4.66 2.98 -5 4 C-6.84765625 4.73046875 -6.84765625 4.73046875 -9.0625 5.1875 C-9.79597656 5.34605469 -10.52945312 5.50460938 -11.28515625 5.66796875 C-12.13400391 5.83232422 -12.13400391 5.83232422 -13 6 C-13 6.66 -13 7.32 -13 8 C-14.32 8 -15.64 8 -17 8 C-17 8.66 -17 9.32 -17 10 C-34.80452292 15.38197556 -34.80452292 15.38197556 -40.28515625 13.01171875 C-40.85105469 12.67785156 -41.41695313 12.34398438 -42 12 C-40.99582031 11.84144531 -39.99164063 11.68289062 -38.95703125 11.51953125 C-26.73537742 9.47908302 -15.91214315 5.86155451 -5.0234375 -0.1796875 C-3 -1 -3 -1 0 0 Z " fill="#283822" transform="translate(509,96)"/>
<path d="M0 0 C0.66 0 1.32 0 2 0 C4.29612756 15.74487472 4.29612756 15.74487472 4 23 C3.34 23 2.68 23 2 23 C1.69707031 22.3709375 1.39414062 21.741875 1.08203125 21.09375 C-1.65053668 15.51090353 -4.58901902 10.19630294 -8 5 C-7.01 5.33 -6.02 5.66 -5 6 C-5 6.66 -5 7.32 -5 8 C-3.02 8.66 -1.04 9.32 1 10 C0.67 6.7 0.34 3.4 0 0 Z " fill="#6D8C50" transform="translate(444,71)"/>
<path d="M0 0 C12.60507099 -0.46685448 23.7274422 1.18334739 36 4 C35.34 4.66 34.68 5.32 34 6 C31.375 5.5390625 31.375 5.5390625 28 4.625 C19.20556748 2.54980646 11.03331095 2.79153898 2 3 C1.67 9.6 1.34 16.2 1 23 C0.67 23 0.34 23 0 23 C0 15.41 0 7.82 0 0 Z " fill="#6F8A53" transform="translate(364,19)"/>
<path d="M0 0 C4.63977252 0.03699978 7.22820614 1.26585022 10.8125 4.3125 C12.16689668 7.02129335 11.87751451 9.32183268 11.8125 12.3125 C9.8125 9.3125 9.8125 9.3125 8.875 6.6875 C8.3490625 5.511875 8.3490625 5.511875 7.8125 4.3125 C4.24778609 3.12426203 1.5566664 3.04975148 -2.1875 3.3125 C-4.96976294 4.85820163 -5.9980415 5.74501818 -7.015625 8.79296875 C-7.15484375 9.68628906 -7.2940625 10.57960937 -7.4375 11.5 C-7.58703125 12.40105469 -7.7365625 13.30210937 -7.890625 14.23046875 C-7.98859375 14.91753906 -8.0865625 15.60460937 -8.1875 16.3125 C-10.68781654 12.56202518 -10.72353554 10.75393734 -10.1875 6.3125 C-7.75 3.4375 -7.75 3.4375 -5.1875 1.3125 C-3.63719882 -0.23780118 -2.15073999 0.06844901 0 0 Z " fill="#DFE0E3" transform="translate(882.1875,137.6875)"/>
<path d="M0 0 C0.66 0.33 1.32 0.66 2 1 C2.62669199 3.16467461 3.15427374 5.35864524 3.625 7.5625 C3.88539063 8.76003906 4.14578125 9.95757812 4.4140625 11.19140625 C4.60742188 12.11824219 4.80078125 13.04507813 5 14 C3.02 14.66 1.04 15.32 -1 16 C-2.578125 14.35546875 -2.578125 14.35546875 -4 12 C-3.671875 9.23828125 -3.671875 9.23828125 -2.75 6.3125 C-2.45609375 5.33925781 -2.1621875 4.36601562 -1.859375 3.36328125 C-1 1 -1 1 0 0 Z " fill="#3A3A3C" transform="translate(847,172)"/>
<path d="M0 0 C1.32 0.33 2.64 0.66 4 1 C3.57589844 1.44988281 3.15179688 1.89976563 2.71484375 2.36328125 C-5.68309642 11.57332992 -10.94203857 21.23752194 -15 33 C-15.33 33 -15.66 33 -16 33 C-16 30.69 -16 28.38 -16 26 C-15.34 26 -14.68 26 -14 26 C-13.34 23.03 -12.68 20.06 -12 17 C-11.34 17 -10.68 17 -10 17 C-8.92474806 14.34771188 -7.90543849 11.71631546 -7 9 C-6.34 9 -5.68 9 -5 9 C-4.67 7.02 -4.34 5.04 -4 3 C-2.68 3 -1.36 3 0 3 C0 2.01 0 1.02 0 0 Z " fill="#293926" transform="translate(480,72)"/>
<path d="M0 0 C1.32 0.33 2.64 0.66 4 1 C4 1.99 4 2.98 4 4 C4.639375 4.12375 5.27875 4.2475 5.9375 4.375 C6.618125 4.58125 7.29875 4.7875 8 5 C8.33 5.66 8.66 6.32 9 7 C8.34 7 7.68 7 7 7 C7 7.66 7 8.32 7 9 C3.92382812 9.29296875 3.92382812 9.29296875 0.84765625 9.5859375 C0.23792969 9.72257813 -0.37179687 9.85921875 -1 10 C-1.33 10.66 -1.66 11.32 -2 12 C-3.32 11.67 -4.64 11.34 -6 11 C-5.34 9.68 -4.68 8.36 -4 7 C-3.34 7.33 -2.68 7.66 -2 8 C-2 7.34 -2 6.68 -2 6 C-1.34 5.67 -0.68 5.34 0 5 C0 3.35 0 1.7 0 0 Z " fill="#313236" transform="translate(286,131)"/>
<path d="M0 0 C3.115439 1.5577195 3.63066045 4.25406367 5.0625 7.375 C8.46701105 14.52741129 12.78030191 20.03174056 18 26 C19.01358174 27.32303811 20.01897561 28.65264372 21 30 C18.80540745 29.01621713 17.20335306 28.22103594 15.5625 26.4375 C13.50800956 24.54736879 11.72005723 24.3675753 9 24 C9.33 22.35 9.66 20.7 10 19 C9.01 19 8.02 19 7 19 C6.74605469 18.41992188 6.49210937 17.83984375 6.23046875 17.2421875 C4.65431639 13.66485292 3.07716369 10.14605984 1.25 6.6875 C0 4 0 4 0 0 Z " fill="#293722" transform="translate(367,60)"/>
<path d="M0 0 C5.28 0 10.56 0 16 0 C16.05441257 3.47938141 16.09387254 6.9578948 16.125 10.4375 C16.14175781 11.41138672 16.15851562 12.38527344 16.17578125 13.38867188 C16.21725154 19.58848075 15.57599699 25.00004295 14 31 C13.67 31 13.34 31 13 31 C13 21.43 13 11.86 13 2 C8.71 1.67 4.42 1.34 0 1 C0 0.67 0 0.34 0 0 Z " fill="#799659" transform="translate(523,20)"/>
<path d="M0 0 C2.4624396 1.82697131 4.04565195 4.02969339 5.9375 6.4375 C7.57106951 7.81118345 9.2300002 9.15687515 10.9375 10.4375 C7.9375 11.4375 7.9375 11.4375 4.9375 10.4375 C3.9475 10.7675 2.9575 11.0975 1.9375 11.4375 C0.9475 10.4475 -0.0425 9.4575 -1.0625 8.4375 C-0.0725 8.1075 0.9175 7.7775 1.9375 7.4375 C0.9475 7.1075 -0.0425 6.7775 -1.0625 6.4375 C-2.08354551 5.45899805 -3.0831121 4.45769573 -4.0625 3.4375 C-5.0525 2.7775 -6.0425 2.1175 -7.0625 1.4375 C-2.70955882 -0.73897059 -2.70955882 -0.73897059 0 0 Z " fill="#313236" transform="translate(315.0625,236.5625)"/>
<path d="M0 0 C0.33 0 0.66 0 1 0 C1.4359501 4.35950104 1.23867835 6.57653841 -0.9375 10.4375 C-4.66887392 13.55967001 -6.52228741 13.53191506 -11.20703125 13.2109375 C-11.79871094 13.14132813 -12.39039063 13.07171875 -13 13 C-13.33 12.34 -13.66 11.68 -14 11 C-12.68 11 -11.36 11 -10 11 C-10 9.35 -10 7.7 -10 6 C-8.68 6.33 -7.36 6.66 -6 7 C-6 7.99 -6 8.98 -6 10 C-5.01 10 -4.02 10 -3 10 C-2.87625 8.906875 -2.7525 7.81375 -2.625 6.6875 C-2 3 -2 3 0 0 Z " fill="#2C2D31" transform="translate(891,145)"/>
<path d="M0 0 C0.66 0 1.32 0 2 0 C1.28671049 10.46157945 -3.89628286 19.69391069 -10 28 C-10.99 27.67 -11.98 27.34 -13 27 C-11.7260411 24.96166576 -10.38938077 22.96147874 -9 21 C-8.34 21 -7.68 21 -7 21 C-7 19.68 -7 18.36 -7 17 C-6.34 16.67 -5.68 16.34 -5 16 C-4.34786708 13.97536745 -4.34786708 13.97536745 -4 12 C-3.34 12 -2.68 12 -2 12 C-1.93941406 11.30132812 -1.87882813 10.60265625 -1.81640625 9.8828125 C-1.73261719 8.97273438 -1.64882813 8.06265625 -1.5625 7.125 C-1.48128906 6.22007813 -1.40007813 5.31515625 -1.31640625 4.3828125 C-1 2 -1 2 0 0 Z " fill="#769358" transform="translate(534,52)"/>
<path d="M0 0 C4.13585351 6.20378027 4.13585351 6.20378027 3.55078125 9.6328125 C3.36902344 10.41398437 3.18726563 11.19515625 3 12 C1.10448978 12.05441656 -0.7914792 12.09298035 -2.6875 12.125 C-3.74324219 12.14820312 -4.79898437 12.17140625 -5.88671875 12.1953125 C-9.02251859 11.99858729 -11.17645373 11.33057654 -14 10 C-14 9.67 -14 9.34 -14 9 C-9.38 9 -4.76 9 0 9 C-0.185625 7.700625 -0.37125 6.40125 -0.5625 5.0625 C-0.87890625 2.84765625 -0.87890625 2.84765625 -1 1 C-0.67 0.67 -0.34 0.34 0 0 Z " fill="#6D8656" transform="translate(434,95)"/>
<path d="M0 0 C0 0.66 0 1.32 0 2 C2.64 2 5.28 2 8 2 C8 2.33 8 2.66 8 3 C5.69 3.66 3.38 4.32 1 5 C0.67 6.32 0.34 7.64 0 9 C-1.32 9 -2.64 9 -4 9 C-7 3.25 -7 3.25 -7 1 C-4.53721199 -0.231394 -2.7204945 -0.07159196 0 0 Z " fill="#313237" transform="translate(407,135)"/>
<path d="M0 0 C2.64 0.33 5.28 0.66 8 1 C7.67 1.66 7.34 2.32 7 3 C7.33 3.99 7.66 4.98 8 6 C3.545 7.485 3.545 7.485 -1 9 C-2 6 -2 6 -2 3 C-1.34 3 -0.68 3 0 3 C0 2.01 0 1.02 0 0 Z " fill="#333438" transform="translate(327,134)"/>
<path d="M0 0 C0.33 0.66 0.66 1.32 1 2 C1.99 2.33 2.98 2.66 4 3 C1.25 9.875 1.25 9.875 -1 11 C-1.90725434 13.11327425 -1.90725434 13.11327425 -2.625 15.5625 C-2.88539063 16.38878906 -3.14578125 17.21507812 -3.4140625 18.06640625 C-3.60742188 18.70449219 -3.80078125 19.34257812 -4 20 C-4.66 19.67 -5.32 19.34 -6 19 C-4.02 12.73 -2.04 6.46 0 0 Z " fill="#3D3E41" transform="translate(582,205)"/>
<path d="M0 0 C4.60291437 2.42931592 7.65601848 5.31203695 10 10 C10.07092842 12.2072923 10.08415025 14.41667452 10.0625 16.625 C10.05347656 17.81351563 10.04445312 19.00203125 10.03515625 20.2265625 C10.02355469 21.14179688 10.01195312 22.05703125 10 23 C9.67 23 9.34 23 9 23 C8.96261719 22.24074219 8.92523438 21.48148438 8.88671875 20.69921875 C8.82097656 19.70535156 8.75523437 18.71148437 8.6875 17.6875 C8.62949219 16.70136719 8.57148438 15.71523437 8.51171875 14.69921875 C7.93837286 11.67492859 7.24761486 10.97027421 5 9 C4.67 8.01 4.34 7.02 4 6 C3.319375 5.319375 2.63875 4.63875 1.9375 3.9375 C1.298125 3.298125 0.65875 2.65875 0 2 C0 1.34 0 0.68 0 0 Z " fill="#4F4F54" transform="translate(200,155)"/>
<path d="M0 0 C1.125 3.75 1.125 3.75 0 6 C-0.22622081 7.70363822 -0.40888473 9.41328701 -0.5625 11.125 C-0.68818359 12.49011719 -0.68818359 12.49011719 -0.81640625 13.8828125 C-0.87699219 14.58148438 -0.93757813 15.28015625 -1 16 C1.64 16 4.28 16 7 16 C7 16.33 7 16.66 7 17 C3.37 17 -0.26 17 -4 17 C-4.48736475 10.29873464 -3.07708804 5.93438408 0 0 Z " fill="#779257" transform="translate(470,90)"/>
<path d="M0 0 C1.60517097 0.08733576 3.20921662 0.19552224 4.8125 0.3125 C6.15248047 0.39951172 6.15248047 0.39951172 7.51953125 0.48828125 C10.37652368 1.07767654 11.17245791 1.7930559 13 4 C14.2684375 5.2375 14.2684375 5.2375 15.5625 6.5 C18 9 18 9 20 12 C16.19911975 10.16640953 12.54087763 8.08614892 8.875 6 C8.24207031 5.64421875 7.60914063 5.2884375 6.95703125 4.921875 C4.36271019 3.44570081 2.12083034 2.12083034 0 0 Z " fill="#6F8E51" transform="translate(409,57)"/>
<path d="M0 0 C0.33 0 0.66 0 1 0 C1.02505615 0.57331055 1.0501123 1.14662109 1.07592773 1.73730469 C1.76266388 17.38670161 1.76266388 17.38670161 3 33 C1 32 1 32 0 29 C-0.08358958 26.78910055 -0.10731764 24.57573922 -0.09765625 22.36328125 C-0.09443359 21.06455078 -0.09121094 19.76582031 -0.08789062 18.42773438 C-0.07953531 17.05598892 -0.07107037 15.68424413 -0.0625 14.3125 C-0.05748335 12.92903805 -0.05292073 11.54557437 -0.04882812 10.16210938 C-0.03702529 6.77469605 -0.02056019 3.38736967 0 0 Z " fill="#293921" transform="translate(363,21)"/>
<path d="M0 0 C0.33 0.99 0.66 1.98 1 3 C1.66 3.33 2.32 3.66 3 4 C2.01 6.31 1.02 8.62 0 11 C-0.66 11 -1.32 11 -2 11 C-4.05519054 5.68068331 -4.05519054 5.68068331 -3.8125 2.6875 C-3.4103125 1.8521875 -3.4103125 1.8521875 -3 1 C-2.01 0.67 -1.02 0.34 0 0 Z " fill="#242529" transform="translate(892,235)"/>
<path d="M0 0 C0.99 1.32 1.98 2.64 3 4 C1.7391988 5.03319813 0.46596742 6.05124379 -0.8125 7.0625 C-1.87404297 7.91521484 -1.87404297 7.91521484 -2.95703125 8.78515625 C-3.63121094 9.18605469 -4.30539062 9.58695313 -5 10 C-5.99 9.67 -6.98 9.34 -8 9 C-7.67 7.35 -7.34 5.7 -7 4 C-6.030625 3.71125 -5.06125 3.4225 -4.0625 3.125 C-0.89335797 2.35785318 -0.89335797 2.35785318 0 0 Z " fill="#35363A" transform="translate(323,140)"/>
<path d="M0 0 C0.99 0.33 1.98 0.66 3 1 C2.125 7.875 2.125 7.875 1 9 C-0.99958364 9.04080783 -3.00045254 9.04254356 -5 9 C-5.33 7.68 -5.66 6.36 -6 5 C-4.35 5 -2.7 5 -1 5 C-1.33 4.01 -1.66 3.02 -2 2 C-1.34 1.34 -0.68 0.68 0 0 Z " fill="#333438" transform="translate(494,244)"/>
<path d="M0 0 C0.99 0.99 1.98 1.98 3 3 C3 4.32 3 5.64 3 7 C1.68 7 0.36 7 -1 7 C-1.66 8.32 -2.32 9.64 -3 11 C-3.66 10.01 -4.32 9.02 -5 8 C-5.99 7.34 -6.98 6.68 -8 6 C-5.36 4.02 -2.72 2.04 0 0 Z " fill="#37373C" transform="translate(290,240)"/>
<path d="M0 0 C0.33 0.66 0.66 1.32 1 2 C0.34 2 -0.32 2 -1 2 C0.63473516 5.12474627 0.63473516 5.12474627 3.125 5.6875 C3.74375 5.790625 4.3625 5.89375 5 6 C-1.75 7.125 -1.75 7.125 -4 6 C-4.33 6.99 -4.66 7.98 -5 9 C-5.99 8.01 -6.98 7.02 -8 6 C-7.67 5.01 -7.34 4.02 -7 3 C-3.4375 1.3125 -3.4375 1.3125 0 0 Z " fill="#333337" transform="translate(787,201)"/>
<path d="M0 0 C3 1 3 1 4 2 C4.07205511 3.68608966 4.08386068 5.37500659 4.0625 7.0625 C4.05347656 7.98160156 4.04445313 8.90070313 4.03515625 9.84765625 C4.02355469 10.55792969 4.01195312 11.26820313 4 12 C3.34 11.67 2.68 11.34 2 11 C1.34 11.66 0.68 12.32 0 13 C-2.21474076 7.95531271 -1.85072153 5.14089313 0 0 Z " fill="#2E2E33" transform="translate(653,141)"/>
<path d="M0 0 C0.66 0 1.32 0 2 0 C2 0.66 2 1.32 2 2 C3.98 2 5.96 2 8 2 C8.33 3.98 8.66 5.96 9 8 C8.01 8 7.02 8 6 8 C5.67 7.01 5.34 6.02 5 5 C4.01 4.67 3.02 4.34 2 4 C2 5.65 2 7.3 2 9 C1.34 9 0.68 9 0 9 C0 6.03 0 3.06 0 0 Z " fill="#F0F1F3" transform="translate(879,147)"/>
<path d="M0 0 C1.9375 0.8125 1.9375 0.8125 4 2 C4.33 2.99 4.66 3.98 5 5 C5.66 5 6.32 5 7 5 C7 5.99 7 6.98 7 8 C7.99 7.67 8.98 7.34 10 7 C10 8.32 10 9.64 10 11 C10.99 11.66 11.98 12.32 13 13 C13.6875 15.625 13.6875 15.625 14 18 C10.14091001 16.71363667 9.64272849 15.24557195 7.5625 11.8125 C6.9540625 10.8225 6.345625 9.8325 5.71875 8.8125 C5.1515625 7.884375 4.584375 6.95625 4 6 C2.68719707 3.98500015 1.34643811 1.99272841 0 0 Z " fill="#263522" transform="translate(423,78)"/>
<path d="M0 0 C2.31 0.66 4.62 1.32 7 2 C7 3.32 7 4.64 7 6 C5.35 5.67 3.7 5.34 2 5 C2 5.66 2 6.32 2 7 C1.01 7 0.02 7 -1 7 C-1.33 5.35 -1.66 3.7 -2 2 C-1.34 2 -0.68 2 0 2 C0 1.34 0 0.68 0 0 Z " fill="#232428" transform="translate(876,160)"/>
<path d="M0 0 C0.66 0.33 1.32 0.66 2 1 C2 1.66 2 2.32 2 3 C3.32 3.33 4.64 3.66 6 4 C6.33 5.65 6.66 7.3 7 9 C6.01 9.495 6.01 9.495 5 10 C4.34 9.34 3.68 8.68 3 8 C1.01231606 6.64837492 -0.9866347 5.31306433 -3 4 C-2.67 3.01 -2.34 2.02 -2 1 C-1.34 0.67 -0.68 0.34 0 0 Z " fill="#37373C" transform="translate(352,156)"/>
<path d="M0 0 C0.66 0.33 1.32 0.66 2 1 C0.41573384 3.41809045 -0.77499328 4.87229348 -3.3125 6.3125 C-6.40025683 8.25132406 -8.4234622 10.44188939 -10.8125 13.1875 C-11.60269531 14.08855469 -12.39289063 14.98960938 -13.20703125 15.91796875 C-13.79871094 16.60503906 -14.39039063 17.29210937 -15 18 C-15 12.50089132 -9.68936771 8.76735434 -6 5 C-4.05347234 3.22256464 -2.09090037 1.6083849 0 0 Z " fill="#729057" transform="translate(492,65)"/>
<path d="M0 0 C2.4375 0.375 2.4375 0.375 5 1 C5.33 1.66 5.66 2.32 6 3 C5.67 3.66 5.34 4.32 5 5 C5.66 5.33 6.32 5.66 7 6 C5.35 6.33 3.7 6.66 2 7 C2 7.66 2 8.32 2 9 C-0.97 8.505 -0.97 8.505 -4 8 C-4 7.67 -4 7.34 -4 7 C-2.35 6.67 -0.7 6.34 1 6 C0.649375 5.38125 0.29875 4.7625 -0.0625 4.125 C-0.371875 3.42375 -0.68125 2.7225 -1 2 C-0.67 1.34 -0.34 0.68 0 0 Z " fill="#303136" transform="translate(219,247)"/>
<path d="M0 0 C-0.33 0.99 -0.66 1.98 -1 3 C-1.66 3 -2.32 3 -3 3 C-3 3.66 -3 4.32 -3 5 C-2.01 5.33 -1.02 5.66 0 6 C-0.99 6 -1.98 6 -3 6 C-3.33 6.99 -3.66 7.98 -4 9 C-4.66 9 -5.32 9 -6 9 C-7.625 7 -7.625 7 -9 5 C-2.87096774 0 -2.87096774 0 0 0 Z " fill="#39383D" transform="translate(338,152)"/>
<path d="M0 0 C2.31 0.33 4.62 0.66 7 1 C6.4409112 4.24271506 5.5867822 5.93057424 3 8 C2.34 8 1.68 8 1 8 C1 7.01 1 6.02 1 5 C-0.32 5.33 -1.64 5.66 -3 6 C-2 4 -1 2 0 0 Z " fill="#333439" transform="translate(506,137)"/>
<path d="M0 0 C1.13115234 0.07831055 1.13115234 0.07831055 2.28515625 0.15820312 C4.1487937 0.28795004 6.01194996 0.42457488 7.875 0.5625 C7.545 1.5525 7.215 2.5425 6.875 3.5625 C4.895 3.5625 2.915 3.5625 0.875 3.5625 C0.875 2.9025 0.875 2.2425 0.875 1.5625 C-0.1975 1.7275 -1.27 1.8925 -2.375 2.0625 C-6.125 2.5625 -6.125 2.5625 -10.125 2.5625 C-10.125 1.9025 -10.125 1.2425 -10.125 0.5625 C-6.91158631 -1.04420684 -3.49541032 -0.26260855 0 0 Z " fill="#2F3335" transform="translate(427.125,107.4375)"/>
<path d="M0 0 C0.66 0.33 1.32 0.66 2 1 C0.04260958 2.3139058 -1.91594125 3.62608302 -3.875 4.9375 C-4.96554687 5.66839844 -6.05609375 6.39929687 -7.1796875 7.15234375 C-10 9 -10 9 -12 10 C-12 9.01 -12 8.02 -12 7 C-12.66 6.67 -13.32 6.34 -14 6 C-11.71220962 4.96959833 -9.42048864 3.95047982 -7.125 2.9375 C-6.47402344 2.64294922 -5.82304687 2.34839844 -5.15234375 2.04492188 C-3.45989459 1.30338487 -1.73131425 0.64560999 0 0 Z " fill="#2B4022" transform="translate(511,50)"/>
<path d="M0 0 C2.64 0.33 5.28 0.66 8 1 C7.49701212 5.40114397 5.91227269 7.71195019 3 11 C3.0928125 9.88625 3.0928125 9.88625 3.1875 8.75 C2.96709928 5.51745608 2.02264742 4.4440323 0 2 C0 1.34 0 0.68 0 0 Z " fill="#313236" transform="translate(201,176)"/>
<path d="M0 0 C0.37076301 3.89301165 0.10260771 5.80577827 -1.75 9.3125 C-4 12 -4 12 -6.25 12.875 C-6.8275 12.91625 -7.405 12.9575 -8 13 C-6.79618552 10.50638429 -5.54571278 8.31856917 -4 6 C-3.835 5.13375 -3.67 4.2675 -3.5 3.375 C-3.335 2.59125 -3.17 1.8075 -3 1 C-1 0 -1 0 0 0 Z " fill="#D6D7DA" transform="translate(895,146)"/>
<path d="M0 0 C0.99 0 1.98 0 3 0 C3 0.66 3 1.32 3 2 C3.66 2 4.32 2 5 2 C5.33 2.99 5.66 3.98 6 5 C5.01 5.66 4.02 6.32 3 7 C2.67 6.67 2.34 6.34 2 6 C-0.18292774 5.76518307 -2.37203174 5.58636677 -4.5625 5.4375 C-5.76003906 5.35371094 -6.95757813 5.26992187 -8.19140625 5.18359375 C-9.11824219 5.12300781 -10.04507813 5.06242188 -11 5 C-11 4.67 -11 4.34 -11 4 C-7.7 3.67 -4.4 3.34 -1 3 C-0.67 2.01 -0.34 1.02 0 0 Z " fill="#48494D" transform="translate(642,135)"/>
<path d="M0 0 C0.99 0 1.98 0 3 0 C3 0.66 3 1.32 3 2 C4.65 2.33 6.3 2.66 8 3 C8.33 3.99 8.66 4.98 9 6 C9.99 6.33 10.98 6.66 12 7 C11.01 7.495 11.01 7.495 10 8 C9.67 8.66 9.34 9.32 9 10 C7.86800647 9.0919838 6.74467637 8.17316174 5.625 7.25 C4.99851562 6.73953125 4.37203125 6.2290625 3.7265625 5.703125 C1.91687682 3.91800519 0.99882545 2.32050356 0 0 Z " fill="#2D3231" transform="translate(407,59)"/>
<path d="M0 0 C0.99 0.66 1.98 1.32 3 2 C2.67 2.33 2.34 2.66 2 3 C3.32 3.33 4.64 3.66 6 4 C6.33 3.01 6.66 2.02 7 1 C7 2.32 7 3.64 7 5 C5.68 5.33 4.36 5.66 3 6 C3 6.66 3 7.32 3 8 C1.35 7.67 -0.3 7.34 -2 7 C-1.34 4.69 -0.68 2.38 0 0 Z " fill="#242429" transform="translate(798,240)"/>
<path d="M0 0 C1.32 0.66 2.64 1.32 4 2 C2.68 2.33 1.36 2.66 0 3 C0 10.92 0 18.84 0 27 C-0.33 27 -0.66 27 -1 27 C-1.02886537 22.68751391 -1.04675255 18.37505238 -1.0625 14.0625 C-1.07087891 12.83080078 -1.07925781 11.59910156 -1.08789062 10.33007812 C-1.09111328 9.16025391 -1.09433594 7.99042969 -1.09765625 6.78515625 C-1.10289307 5.70113525 -1.10812988 4.61711426 -1.11352539 3.50024414 C-1 1 -1 1 0 0 Z " fill="#343538" transform="translate(612,143)"/>
<path d="M0 0 C2.5 2.3125 2.5 2.3125 5 5 C5 5.99 5 6.98 5 8 C4.01 8.33 3.02 8.66 2 9 C0.68 7.68 -0.64 6.36 -2 5 C-1.34 3.35 -0.68 1.7 0 0 Z " fill="#3C3B41" transform="translate(316,182)"/>
<path d="M0 0 C1.28148025 3.84444074 0.43706699 4.74929737 -1.3125 8.3125 C-3.14949057 12.15997469 -4.78186428 15.90263438 -6 20 C-6.33 20 -6.66 20 -7 20 C-7 17.69 -7 15.38 -7 13 C-6.34 13 -5.68 13 -5 13 C-4.34 10.03 -3.68 7.06 -3 4 C-2.34 4 -1.68 4 -1 4 C-0.67 2.68 -0.34 1.36 0 0 Z " fill="#23311E" transform="translate(471,85)"/>
<path d="M0 0 C0.66 0 1.32 0 2 0 C2.33 2.64 2.66 5.28 3 8 C1.35 8.33 -0.3 8.66 -2 9 C-3 6 -3 6 -1.5625 2.8125 C-1.046875 1.884375 -0.53125 0.95625 0 0 Z " fill="#3D3C40" transform="translate(372,228)"/>
<path d="M0 0 C1.60746056 0.42523816 3.21089836 0.86570126 4.8125 1.3125 C6.15248047 1.67794922 6.15248047 1.67794922 7.51953125 2.05078125 C10.06139986 3.02349632 11.30607942 3.90088912 13 6 C13 6.33 13 6.66 13 7 C8.83379743 7.34292736 6.93446935 6.66129845 3.6875 4.0625 C2.99011719 3.51722656 2.29273438 2.97195312 1.57421875 2.41015625 C1.05472656 1.94480469 0.53523438 1.47945312 0 1 C0 0.67 0 0.34 0 0 Z " fill="#30471F" transform="translate(391,50)"/>
<path d="M0 0 C0.38218767 1.65614657 0.71395102 3.32457024 1 5 C0.67 5.33 0.34 5.66 0 6 C-2.33944736 5.71269945 -4.6739143 5.38063221 -7 5 C-7 4.34 -7 3.68 -7 3 C-4.4385343 0.70351351 -3.52032428 0 0 0 Z " fill="#313237" transform="translate(424,213)"/>
<path d="M0 0 C0.99 0.33 1.98 0.66 3 1 C4.37407134 3.85384047 3.95284958 5.1634548 3.0625 8.25 C2.711875 9.1575 2.36125 10.065 2 11 C-0.40563753 8.59436247 -0.60358311 7.32990189 -1 4 C-0.5625 1.6875 -0.5625 1.6875 0 0 Z " fill="#343438" transform="translate(559,208)"/>
<path d="M0 0 C0.33 0 0.66 0 1 0 C1.09765625 6.15234375 1.09765625 6.15234375 1 8 C0 9 0 9 -2.5625 9.0625 C-3.366875 9.041875 -4.17125 9.02125 -5 9 C-3.75471468 5.55151758 -2.38532951 2.80016942 0 0 Z " fill="#353439" transform="translate(60,166)"/>
<path d="M0 0 C0.66 0 1.32 0 2 0 C2.33 0.66 2.66 1.32 3 2 C5.01669827 3.13350534 5.01669827 3.13350534 7 4 C4.03 6.475 4.03 6.475 1 9 C-1 6 -1 6 -0.625 2.8125 C-0.41875 1.884375 -0.2125 0.95625 0 0 Z " fill="#37383C" transform="translate(372,205)"/>
<path d="M0 0 C0.33 0.66 0.66 1.32 1 2 C1.99 2.33 2.98 2.66 4 3 C4 4.32 4 5.64 4 7 C2.02 7.33 0.04 7.66 -2 8 C-1.125 1.125 -1.125 1.125 0 0 Z " fill="#24252A" transform="translate(43,259)"/>
<path d="M0 0 C0.66 0.33 1.32 0.66 2 1 C0.38050958 2.50594681 -1.24575974 4.00460668 -2.875 5.5 C-4.23238281 6.75296875 -4.23238281 6.75296875 -5.6171875 8.03125 C-8 10 -8 10 -10 10 C-10 8.68 -10 7.36 -10 6 C-9.030625 5.54625 -8.06125 5.0925 -7.0625 4.625 C-3.92920418 3.34213779 -3.92920418 3.34213779 -3 1 C-2.01 0.67 -1.02 0.34 0 0 Z " fill="#273721" transform="translate(484,31)"/>
<path d="M0 0 C1.05609899 3.16829698 1.13055309 3.98519175 0 7 C-1.5625 8.75 -1.5625 8.75 -3 10 C-3.66 9.67 -4.32 9.34 -5 9 C-5 8.01 -5 7.02 -5 6 C-4.34 6 -3.68 6 -3 6 C-2.67 5.01 -2.34 4.02 -2 3 C-1.34 2.01 -0.68 1.02 0 0 Z " fill="#323135" transform="translate(53,148)"/>
<path d="M0 0 C2.475 0.99 2.475 0.99 5 2 C5 2.66 5 3.32 5 4 C5.99 4.33 6.98 4.66 8 5 C6.02 5.99 6.02 5.99 4 7 C2.02 5.68 0.04 4.36 -2 3 C-1.34 2.67 -0.68 2.34 0 2 C0 1.34 0 0.68 0 0 Z " fill="#333337" transform="translate(788,141)"/>
<path d="M0 0 C0.99 0 1.98 0 3 0 C2.625 1.9375 2.625 1.9375 2 4 C1.01 4.495 1.01 4.495 0 5 C0 5.99 0 6.98 0 8 C-0.66 9.32 -1.32 10.64 -2 12 C-2.33 9.03 -2.66 6.06 -3 3 C-2.34 3 -1.68 3 -1 3 C-0.67 2.01 -0.34 1.02 0 0 Z " fill="#3A3B3F" transform="translate(76,234)"/>
<path d="M0 0 C4.51045941 2.46025059 8.18504423 5.60282037 12 9 C11.34 9.66 10.68 10.32 10 11 C10 10.34 10 9.68 10 9 C8.68 8.67 7.36 8.34 6 8 C6 7.34 6 6.68 6 6 C4.68 5.34 3.36 4.68 2 4 C2 3.34 2 2.68 2 2 C1.34 2 0.68 2 0 2 C0 1.34 0 0.68 0 0 Z " fill="#6F8B55" transform="translate(402,59)"/>
<path d="M0 0 C-1.76505435 0.86604534 -3.53728074 1.71748642 -5.3125 2.5625 C-6.79169922 3.27599609 -6.79169922 3.27599609 -8.30078125 4.00390625 C-11 5 -11 5 -14 4 C-12 1 -12 1 -9.6875 0.234375 C-8.800625 0.07453125 -7.91375 -0.0853125 -7 -0.25 C-6.113125 -0.42015625 -5.22625 -0.5903125 -4.3125 -0.765625 C-2 -1 -2 -1 0 0 Z " fill="#759853" transform="translate(510,51)"/>
<path d="M0 0 C1.12588014 0.95729916 2.2506715 1.91587895 3.375 2.875 C4.00148437 3.40867188 4.62796875 3.94234375 5.2734375 4.4921875 C6.55836651 5.61432007 7.79371975 6.79371975 9 8 C7.02 8.33 5.04 8.66 3 9 C2.8453125 8.13375 2.8453125 8.13375 2.6875 7.25 C1.90207202 4.67950842 0.69495803 3.06342716 -1 1 C-0.67 0.67 -0.34 0.34 0 0 Z " fill="#3B3A3F" transform="translate(242,238)"/>
<path d="M0 0 C2 1 2 1 3.125 4.0625 C3.41375 5.031875 3.7025 6.00125 4 7 C3.01 6.34 2.02 5.68 1 5 C-1.96842658 4.54084493 -1.96842658 4.54084493 -5.1875 4.375 C-6.27417969 4.30023438 -7.36085938 4.22546875 -8.48046875 4.1484375 C-9.31191406 4.09945312 -10.14335938 4.05046875 -11 4 C-11 3.67 -11 3.34 -11 3 C-8.03 3 -5.06 3 -2 3 C-2 2.34 -2 1.68 -2 1 C-1.34 0.67 -0.68 0.34 0 0 Z " fill="#3F4043" transform="translate(854,136)"/>
<path d="M0 0 C0.66 0 1.32 0 2 0 C1.34 3.96 0.68 7.92 0 12 C-2.44897847 8.32653229 -2.31537716 6.33643601 -2 2 C-1.34 1.34 -0.68 0.68 0 0 Z " fill="#EBECEF" transform="translate(874,142)"/>
<path d="M0 0 C2 2 2 2 2.1953125 3.9453125 C2.13020833 5.96354167 2.06510417 7.98177083 2 10 C1.34 10 0.68 10 0 10 C-1.125 6.6875 -1.125 6.6875 -2 3 C-1.34 2.01 -0.68 1.02 0 0 Z " fill="#688353" transform="translate(446,84)"/>
<path d="M0 0 C0.99 0.33 1.98 0.66 3 1 C1.54634731 2.17249353 0.08692581 3.33783816 -1.375 4.5 C-2.18710937 5.1496875 -2.99921875 5.799375 -3.8359375 6.46875 C-6 8 -6 8 -8 8 C-6.49860488 3.79609368 -3.82724957 2.10889262 0 0 Z " fill="#769555" transform="translate(507,54)"/>
<path d="M0 0 C3.49844386 0.63389235 5.84086876 2.05177694 8.75 4.0625 C9.94882812 4.88427734 9.94882812 4.88427734 11.171875 5.72265625 C12.07679688 6.35494141 12.07679688 6.35494141 13 7 C11 8 11 8 8.4375 7.1875 C6 6 6 6 5 4 C3.34051852 2.98812105 1.67419438 1.9873454 0 1 C0 0.67 0 0.34 0 0 Z " fill="#729055" transform="translate(389,51)"/>
<path d="M0 0 C0.33 0.66 0.66 1.32 1 2 C1.66 2 2.32 2 3 2 C3 1.34 3 0.68 3 0 C3.66 0.33 4.32 0.66 5 1 C4 3 4 3 1 5 C-0.33790641 5.99387334 -1.67218122 6.9926892 -3 8 C-3.66 7.34 -4.32 6.68 -5 6 C-3.36587557 4.29159719 -2.13093906 3.06546953 0 2 C0 1.34 0 0.68 0 0 Z " fill="#313237" transform="translate(264,228)"/>
<path d="M0 0 C0.598125 0.639375 1.19625 1.27875 1.8125 1.9375 C3.90810337 4.20310389 3.90810337 4.20310389 7 5 C6.34 5.66 5.68 6.32 5 7 C2.0625 6.25 2.0625 6.25 -1 5 C-1.875 2.875 -1.875 2.875 -2 1 C-1.34 0.67 -0.68 0.34 0 0 Z " fill="#36353B" transform="translate(363,193)"/>
<path d="M0 0 C0.33 0.66 0.66 1.32 1 2 C0.67 2.66 0.34 3.32 0 4 C0.66 4.33 1.32 4.66 2 5 C-0.64 6.65 -3.28 8.3 -6 10 C-5.34 8.68 -4.68 7.36 -4 6 C-3.34 6 -2.68 6 -2 6 C-2.33 4.35 -2.66 2.7 -3 1 C-2.01 0.67 -1.02 0.34 0 0 Z " fill="#242528" transform="translate(71,155)"/>
<path d="M0 0 C0.66 0.33 1.32 0.66 2 1 C2 1.99 2 2.98 2 4 C2.66 4 3.32 4 4 4 C4.33 4.99 4.66 5.98 5 7 C3.68 7.33 2.36 7.66 1 8 C0.71125 7.38125 0.4225 6.7625 0.125 6.125 C-0.93720042 3.86674235 -0.93720042 3.86674235 -3 2 C-2.01 1.34 -1.02 0.68 0 0 Z " fill="#35363A" transform="translate(527,245)"/>
<path d="M0 0 C1.45606519 4.52092968 0.27032841 7.51648796 -1 12 C-1.66 11.01 -2.32 10.02 -3 9 C-2.5390625 6.73828125 -2.5390625 6.73828125 -1.625 4.3125 C-1.32851563 3.50425781 -1.03203125 2.69601563 -0.7265625 1.86328125 C-0.48679687 1.24839844 -0.24703125 0.63351563 0 0 Z " fill="#3F3F3F" transform="translate(591,181)"/>
<path d="M0 0 C0.33 0 0.66 0 1 0 C1.05386629 2.12472576 1.09273071 4.24983652 1.125 6.375 C1.14820313 7.55835938 1.17140625 8.74171875 1.1953125 9.9609375 C1 13 1 13 -1 15 C-2.20220203 11.46905698 -1.79532349 8.87101018 -1.0625 5.25 C-0.86785156 4.26515625 -0.67320312 3.2803125 -0.47265625 2.265625 C-0.31667969 1.51796875 -0.16070312 0.7703125 0 0 Z " fill="#5D5E60" transform="translate(312,162)"/>
<path d="M0 0 C1.175625 0.5259375 1.175625 0.5259375 2.375 1.0625 C3.674375 1.5265625 3.674375 1.5265625 5 2 C5.66 1.67 6.32 1.34 7 1 C7.33 2.32 7.66 3.64 8 5 C3.48279689 5.36625971 3.48279689 5.36625971 1.1875 3.625 C0 2 0 2 0 0 Z " fill="#323338" transform="translate(718,137)"/>
<path d="M0 0 C0.33 0 0.66 0 1 0 C1 2.64 1 5.28 1 8 C1.99 8.33 2.98 8.66 4 9 C3.03114628 10.68496298 2.03013277 12.35178756 1 14 C0.67 14 0.34 14 0 14 C0 9.38 0 4.76 0 0 Z " fill="#6C8153" transform="translate(457,78)"/>
<path d="M0 0 C1.32 0.33 2.64 0.66 4 1 C0.37 3.31 -3.26 5.62 -7 8 C-4.98417794 3.96835588 -3.71998812 2.39142094 0 0 Z " fill="#6E9051" transform="translate(483,61)"/>
<path d="M0 0 C1.68762851 1.6454378 3.3540349 3.31288577 5 5 C5 5.33 5 5.66 5 6 C3.35 6 1.7 6 0 6 C-1.125 2.25 -1.125 2.25 0 0 Z " fill="#313236" transform="translate(757,207)"/>
<path d="M0 0 C3 1 3 1 4 2 C4.07205511 3.68608966 4.08386068 5.37500659 4.0625 7.0625 C4.05347656 7.98160156 4.04445313 8.90070313 4.03515625 9.84765625 C4.02355469 10.55792969 4.01195312 11.26820313 4 12 C3.67 12 3.34 12 3 12 C3 9.03 3 6.06 3 3 C2.34 3 1.68 3 1 3 C0.67 3.99 0.34 4.98 0 6 C-1.125 2.25 -1.125 2.25 0 0 Z " fill="#434447" transform="translate(653,141)"/>
<path d="M0 0 C1.32 0.33 2.64 0.66 4 1 C4 1.66 4 2.32 4 3 C4.66 3 5.32 3 6 3 C5.34 4.32 4.68 5.64 4 7 C3.67 6.34 3.34 5.68 3 5 C2.01 5 1.02 5 0 5 C0 3.35 0 1.7 0 0 Z " fill="#74964D" transform="translate(428,91)"/>
<path d="M0 0 C1.32 0.33 2.64 0.66 4 1 C3.855625 1.556875 3.71125 2.11375 3.5625 2.6875 C2.97230872 5.11384195 2.476571 7.54906345 2 10 C1.34 9.67 0.68 9.34 0 9 C0 6.03 0 3.06 0 0 Z " fill="#1C1D1F" transform="translate(887,143)"/>
<path d="M0 0 C0 0.99 0 1.98 0 3 C-2.3125 4.75 -2.3125 4.75 -5 6 C-5.99 5.67 -6.98 5.34 -8 5 C-7.01 3.68 -6.02 2.36 -5 1 C-5 1.66 -5 2.32 -5 3 C-4.34 3 -3.68 3 -3 3 C-2.67 2.34 -2.34 1.68 -2 1 C-1.34 0.67 -0.68 0.34 0 0 Z " fill="#232428" transform="translate(880,135)"/>
<path d="M0 0 C2.97 0.495 2.97 0.495 6 1 C6 1.99 6 2.98 6 4 C3.36 4 0.72 4 -2 4 C-1.34 2.68 -0.68 1.36 0 0 Z " fill="#222328" transform="translate(897,314)"/>
<path d="M0 0 C0.33 0.66 0.66 1.32 1 2 C0.14883791 4.43189168 -0.84845643 6.69691285 -2 9 C-2.33 7.35 -2.66 5.7 -3 4 C-3.99 3.67 -4.98 3.34 -6 3 C-5.195625 2.690625 -4.39125 2.38125 -3.5625 2.0625 C-1.10919595 1.23664655 -1.10919595 1.23664655 0 0 Z " fill="#313237" transform="translate(324,197)"/>
<path d="M0 0 C0.66666667 2 1.33333333 4 2 6 C2.66 6.33 3.32 6.66 4 7 C3.01 8.32 2.02 9.64 1 11 C-0.59555725 7.50971852 -1.32049797 4.84597567 -1 1 C-0.67 0.67 -0.34 0.34 0 0 Z " fill="#24252A" transform="translate(873,185)"/>
<path d="M0 0 C1.65 1.32 3.3 2.64 5 4 C3.25 5.125 3.25 5.125 1 6 C-1.25 5.125 -1.25 5.125 -3 4 C-2.01 3.34 -1.02 2.68 0 2 C0 1.34 0 0.68 0 0 Z " fill="#30382F" transform="translate(389,90)"/>
<path d="M0 0 C0.33 0 0.66 0 1 0 C0.25 6.625 0.25 6.625 -2 10 C-2.66 10 -3.32 10 -4 10 C-2.8905928 6.51329166 -1.73662334 3.22515763 0 0 Z " fill="#6D8D51" transform="translate(466,52)"/>
<path d="M0 0 C1.32 0.66 2.64 1.32 4 2 C3.67 2.99 3.34 3.98 3 5 C0.69 4.67 -1.62 4.34 -4 4 C-3.67 3.34 -3.34 2.68 -3 2 C-2.01 2 -1.02 2 0 2 C0 1.34 0 0.68 0 0 Z " fill="#222328" transform="translate(36,9)"/>
<path d="M0 0 C1.32 0.66 2.64 1.32 4 2 C2.35 3.98 0.7 5.96 -1 8 C-1.33 6.68 -1.66 5.36 -2 4 C-1.34 4 -0.68 4 0 4 C0 2.68 0 1.36 0 0 Z " fill="#373739" transform="translate(29,181)"/>
<path d="M0 0 C0.99 0.33 1.98 0.66 3 1 C2.34 1.66 1.68 2.32 1 3 C0.53709779 5.66242821 0.53709779 5.66242821 0.375 8.625 C0.30023437 9.62789062 0.22546875 10.63078125 0.1484375 11.6640625 C0.09945312 12.43492187 0.05046875 13.20578125 0 14 C-0.33 14 -0.66 14 -1 14 C-1.02685938 11.85423363 -1.04633088 9.70837355 -1.0625 7.5625 C-1.07410156 6.36753906 -1.08570313 5.17257813 -1.09765625 3.94140625 C-1 1 -1 1 0 0 Z " fill="#DEDEDF" transform="translate(658,140)"/>
<path d="M0 0 C1.32 0.66 2.64 1.32 4 2 C3.01 2.495 3.01 2.495 2 3 C2.33 3.99 2.66 4.98 3 6 C2.01 6.495 2.01 6.495 1 7 C0.01 6.01 -0.98 5.02 -2 4 C-1.34 2.68 -0.68 1.36 0 0 Z " fill="#36373C" transform="translate(445,135)"/>
<path d="M0 0 C3.82946843 1.45255699 5.12050295 3.42895561 7 7 C5.35 7 3.7 7 2 7 C1.34 4.69 0.68 2.38 0 0 Z " fill="#313236" transform="translate(459,240)"/>
<path d="M0 0 C1.5 1.3125 1.5 1.3125 3 3 C3 3.99 3 4.98 3 6 C1.35 6 -0.3 6 -2 6 C-2.33 5.34 -2.66 4.68 -3 4 C-1.68 4 -0.36 4 1 4 C1 3.34 1 2.68 1 2 C0.34 1.67 -0.32 1.34 -1 1 C-0.67 0.67 -0.34 0.34 0 0 Z " fill="#28272C" transform="translate(236,227)"/>
<path d="M0 0 C-0.99 1.32 -1.98 2.64 -3 4 C-4.65 2.68 -6.3 1.36 -8 0 C-4.71023192 -1.09658936 -3.28696233 -0.79953138 0 0 Z " fill="#3B3B3F" transform="translate(355,188)"/>
<path d="M0 0 C0.66 1.32 1.32 2.64 2 4 C0.68 5.65 -0.64 7.3 -2 9 C-2.66 8.67 -3.32 8.34 -4 8 C-2.68 5.36 -1.36 2.72 0 0 Z " fill="#3B3C3F" transform="translate(314,178)"/>
<path d="M0 0 C0.33 0 0.66 0 1 0 C0.67 2.97 0.34 5.94 0 9 C-0.66 9 -1.32 9 -2 9 C-1.125 1.125 -1.125 1.125 0 0 Z " fill="#3D3C41" transform="translate(223,177)"/>
<path d="M0 0 C4.875 1.75 4.875 1.75 6 4 C5.67 4.66 5.34 5.32 5 6 C4.01 5.67 3.02 5.34 2 5 C2 4.01 2 3.02 2 2 C1.34 2 0.68 2 0 2 C0 1.34 0 0.68 0 0 Z " fill="#313235" transform="translate(774,158)"/>
<path d="M0 0 C2 3 2 3 2 6 C1.01 6 0.02 6 -1 6 C-1.33 5.01 -1.66 4.02 -2 3 C-2.99 2.34 -3.98 1.68 -5 1 C-3.35 0.67 -1.7 0.34 0 0 Z " fill="#D5D6D9" transform="translate(886,149)"/>
<path d="M0 0 C0.66 1.32 1.32 2.64 2 4 C1.360625 4.103125 0.72125 4.20625 0.0625 4.3125 C-0.618125 4.539375 -1.29875 4.76625 -2 5 C-2.33 5.99 -2.66 6.98 -3 8 C-3 3.73173127 -2.62386487 3.06117568 0 0 Z " fill="#759354" transform="translate(475,83)"/>
<path d="M0 0 C0.66 0.33 1.32 0.66 2 1 C-0.97 2.65 -3.94 4.3 -7 6 C-7 5.01 -7 4.02 -7 3 C-4.69631264 1.93347808 -2.35981813 0.93578995 0 0 Z " fill="#2C4917" transform="translate(511,50)"/>
<path d="M0 0 C3.3 0.33 6.6 0.66 10 1 C10 1.33 10 1.66 10 2 C6.7 2.66 3.4 3.32 0 4 C0 2.68 0 1.36 0 0 Z " fill="#424348" transform="translate(60,247)"/>
<path d="M0 0 C0.99 1.485 0.99 1.485 2 3 C1.34 3 0.68 3 0 3 C0 2.01 0 1.02 0 0 Z M-2 2 C-1.01 2.66 -0.02 3.32 1 4 C0.67 4.99 0.34 5.98 0 7 C-1.32 6.34 -2.64 5.68 -4 5 C-3.34 4.01 -2.68 3.02 -2 2 Z " fill="#35363B" transform="translate(204,239)"/>
<path d="M0 0 C3.68754757 0.49831724 5.60490662 1.10067643 8 4 C6.35 4.66 4.7 5.32 3 6 C2.87625 5.195625 2.7525 4.39125 2.625 3.5625 C2.315625 2.2940625 2.315625 2.2940625 2 1 C1.34 0.67 0.68 0.34 0 0 Z " fill="#393A3E" transform="translate(340,201)"/>
<path d="M0 0 C1.9375 0.3125 1.9375 0.3125 4 1 C4.33 1.99 4.66 2.98 5 4 C3.02 4.99 3.02 4.99 1 6 C0.67 4.02 0.34 2.04 0 0 Z " fill="#404145" transform="translate(549,184)"/>
<path d="M0 0 C2.35953094 2.35953094 2.49141413 3.77895617 3 7 C0.525 6.01 0.525 6.01 -2 5 C-1.34 3.35 -0.68 1.7 0 0 Z " fill="#36353A" transform="translate(316,182)"/>
<path d="M0 0 C2.05078125 0.03255208 4.1015625 0.06510417 6.15234375 0.09765625 C6.15234375 0.42765625 6.15234375 0.75765625 6.15234375 1.09765625 C5.24484375 1.20078125 4.33734375 1.30390625 3.40234375 1.41015625 C0.132728 2.10180574 -1.38483362 2.91900546 -3.84765625 5.09765625 C-2.72914438 0.14424653 -2.72914438 0.14424653 0 0 Z " fill="#E3E4E7" transform="translate(437.84765625,139.90234375)"/>
<path d="M0 0 C1.32 0.66 2.64 1.32 4 2 C2.68 3.32 1.36 4.64 0 6 C-0.38218767 4.34385343 -0.71395102 2.67542976 -1 1 C-0.67 0.67 -0.34 0.34 0 0 Z " fill="#323338" transform="translate(60,138)"/>
<path d="M0 0 C0 0.66 0 1.32 0 2 C-1.32 2 -2.64 2 -4 2 C-4 3.65 -4 5.3 -4 7 C-4.33 7 -4.66 7 -5 7 C-5 5.35 -5 3.7 -5 2 C-5.66 1.67 -6.32 1.34 -7 1 C-4.53721199 -0.231394 -2.7204945 -0.07159196 0 0 Z " fill="#303136" transform="translate(260,131)"/>
<path d="M0 0 C0.66 0 1.32 0 2 0 C1.67 0.99 1.34 1.98 1 3 C1.66 3.66 2.32 4.32 3 5 C0.03 5 -2.94 5 -6 5 C-6 4.67 -6 4.34 -6 4 C-4.35 4 -2.7 4 -1 4 C-0.67 2.68 -0.34 1.36 0 0 Z " fill="#313237" transform="translate(421,120)"/>
<path d="M0 0 C-0.33 0.66 -0.66 1.32 -1 2 C-4.0625 2.625 -4.0625 2.625 -7 3 C-7 2.01 -7 1.02 -7 0 C-3.98968256 -0.93423645 -3.13349732 -1.04449911 0 0 Z " fill="#313137" transform="translate(522,93)"/>
</svg>
